<svg xmlns="http://www.w3.org/2000/svg" xmlns:xlink="http://www.w3.org/1999/xlink" version="1.1" x="0px" y="0px" viewBox="0 0 100 125" enable-background="new 0 0 100 100" xml:space="preserve"><polygon fill="#000000" points="50.896,53.636 50.912,53.771 51.018,53.71 "/><polygon fill="#000000" points="45.887,54.609 48.902,52.867 48.879,52.66 45.92,54.367 "/><polygon fill="#000000" points="47.488,55.527 50.512,53.785 50.488,53.576 47.521,55.29 "/><polygon fill="#000000" points="48.559,56.16 51.58,54.396 51.555,54.215 48.592,55.923 "/><path fill="#000000" d="M49.693,53.1c0.014,0.009,0.025,0.016,0.035,0.027c0.008,0.004,0.018-0.001,0.027,0.004l0.029,0.017  l0.129-0.072l-0.627-0.365l0.02,0.162l0.369,0.205C49.686,53.082,49.686,53.093,49.693,53.1z"/><polygon fill="#000000" points="48.197,52.081 48.213,52.217 48.32,52.155 "/><polygon fill="#000000" points="43.721,53.361 46.742,51.619 46.719,51.413 43.754,53.12 "/><polygon fill="#000000" points="47.125,51.458 47.139,51.58 47.238,51.522 "/><polygon fill="#000000" points="44.445,49.918 44.461,50.015 44.537,49.971 "/><path fill="#000000" d="M45.988,50.973c0.012,0.001,0.02,0.008,0.031,0.012l0.127-0.073l-0.627-0.363l0.02,0.165l0.445,0.256  C45.986,50.97,45.986,50.972,45.988,50.973z"/><polygon fill="#000000" points="44.805,53.964 47.812,52.229 47.787,52.022 44.844,53.737 "/><polygon fill="#000000" points="51.26,57.688 54.281,55.949 54.26,55.767 51.289,57.478 "/><polygon fill="#000000" points="55.018,59.874 58.049,58.14 58.016,57.932 55.057,59.647 "/><path fill="#000000" d="M56.141,56.823c0.01,0.009,0.02,0.014,0.029,0.024c0.008,0.003,0.016-0.002,0.023,0.003l0.029,0.017  l0.133-0.076l-0.625-0.36l0.018,0.146l0.377,0.226C56.133,56.808,56.133,56.817,56.141,56.823z"/><polygon fill="#000000" points="57.342,57.368 57.355,57.484 57.451,57.431 "/><polygon fill="#000000" points="50.164,57.078 53.186,55.335 53.16,55.131 50.195,56.841 "/><polygon fill="#000000" points="53.932,59.245 56.955,57.505 56.932,57.318 53.965,59.01 "/><polygon fill="#000000" points="56.621,60.789 59.65,59.057 59.615,58.845 56.66,60.562 "/><path fill="#000000" d="M52.447,54.709c0.004,0.003,0.012,0.002,0.016,0.006l0.133-0.08l-0.631-0.365l0.02,0.145l0.449,0.274  C52.441,54.693,52.441,54.703,52.447,54.709z"/><polygon fill="#000000" points="42.115,52.417 45.133,50.677 45.111,50.495 42.146,52.184 "/><polygon fill="#000000" points="53.568,55.177 53.584,55.314 53.691,55.248 "/><polygon fill="#000000" points="54.668,55.82 54.68,55.921 54.76,55.875 "/><polygon fill="#000000" points="52.33,58.327 55.346,56.582 55.32,56.381 52.363,58.088 "/><polygon fill="#000000" points="37.27,49.607 40.291,47.878 40.262,47.691 37.305,49.408 "/><polygon fill="#000000" points="31.902,46.532 34.92,44.793 34.893,44.586 31.934,46.299 "/><polygon fill="#000000" points="34.215,44.011 34.23,44.139 34.332,44.081 "/><polygon fill="#000000" points="32.973,47.146 35.988,45.402 35.967,45.222 33.004,46.911 "/><path fill="#000000" d="M33.088,43.527c0.004,0.004,0.012,0.003,0.016,0.007l0.148-0.086l-0.648-0.371l0.018,0.159l0.451,0.271  C33.08,43.512,33.082,43.521,33.088,43.527z"/><polygon fill="#000000" points="34.576,48.086 37.598,46.321 37.572,46.139 34.607,47.852 "/><polygon fill="#000000" points="35.303,44.63 35.318,44.754 35.418,44.695 "/><polygon fill="#000000" points="28.131,44.343 31.152,42.602 31.129,42.417 28.162,44.106 "/><path fill="#000000" d="M30.338,41.919c0.014,0.01,0.023,0.017,0.035,0.029c0.01,0.005,0.021-0.001,0.031,0.006l0.023,0.015  l0.129-0.074L29.93,41.53l0.02,0.161l0.371,0.205C30.328,41.901,30.33,41.912,30.338,41.919z"/><polygon fill="#000000" points="30.822,45.892 33.83,44.155 33.805,43.952 30.861,45.666 "/><path fill="#000000" d="M43.227,49.385c0.01,0.008,0.021,0.011,0.029,0.021c0.008,0.003,0.016-0.002,0.023,0.002l0.053,0.028  l0.137-0.078L42.838,49l0.027,0.162l0.346,0.201C43.219,49.368,43.219,49.379,43.227,49.385z"/><polygon fill="#000000" points="29.219,44.971 32.219,43.237 32.195,43.033 29.256,44.744 "/><polygon fill="#000000" points="31.539,42.47 31.555,42.587 31.65,42.532 "/><polygon fill="#000000" points="40.676,47.75 40.691,47.848 40.77,47.803 "/><polygon fill="#000000" points="28.854,40.926 28.871,41.025 28.949,40.979 "/><polygon fill="#000000" points="41.035,51.799 44.064,50.067 44.031,49.855 41.074,51.571 "/><polygon fill="#000000" points="41.752,48.355 41.77,48.49 41.875,48.425 "/><polygon fill="#000000" points="38.346,50.258 41.369,48.515 41.34,48.305 38.379,50.017 "/><path fill="#000000" d="M39.529,47.245c0.008,0.006,0.021,0.005,0.027,0.012c0.008,0.002,0.016-0.004,0.021-0.002l0.135-0.084  l-0.639-0.37l0.021,0.193l0.416,0.229C39.521,47.228,39.521,47.238,39.529,47.245z"/><polygon fill="#000000" points="35.67,48.699 38.689,46.958 38.666,46.751 35.703,48.46 "/><path fill="#000000" d="M36.783,45.666c0.01,0.008,0.021,0.012,0.029,0.021c0.006,0.002,0.012-0.002,0.018,0.001l0.057,0.026  l0.121-0.072l-0.633-0.368l0.018,0.15l0.375,0.221C36.775,45.65,36.775,45.66,36.783,45.666z"/><polygon fill="#000000" points="37.984,46.189 38,46.304 38.092,46.251 "/><path fill="#000000" d="M58.891,58.426c0.004,0.004,0.012,0.003,0.018,0.008l0.152-0.087l-0.631-0.357l0.025,0.165l0.42,0.251  C58.883,58.41,58.883,58.42,58.891,58.426z"/><polygon fill="#000000" points="39.434,50.881 42.453,49.128 42.422,48.938 39.473,50.656 "/><path fill="#000000" d="M57.785,62.117c0.004-0.023,0.018-0.04,0.027-0.062c0.01-0.017,0.006-0.036,0.02-0.051  c0.008-0.007,0.018-0.005,0.023-0.011c0.008-0.006,0.008-0.016,0.016-0.021l0.029-0.019l0.088-0.201l-0.443,0.255  c-0.027,0.017-0.057,0.021-0.086,0.023c-0.006,0.001-0.01,0.007-0.016,0.007s-0.012-0.008-0.02-0.009  c-0.025-0.003-0.051-0.007-0.076-0.02l-0.119-0.067l-1.859,1.048l0.449,0.248L57.785,62.117z"/><polygon fill="#000000" points="57.332,61.185 57.215,61.445 57.289,61.488 "/><path fill="#000000" d="M54.875,60.456c-0.031,0.018-0.066,0.026-0.1,0.026h-0.027c-0.035,0-0.068-0.009-0.1-0.026l-0.197-0.112  l-1.82,1.061l0.441,0.25l5.305-3.08l-0.111-0.066L54.875,60.456z"/><polygon fill="#000000" points="56.246,60.538 56.127,60.811 56.205,60.855 56.258,60.544 "/><polygon fill="#000000" points="58.412,61.786 58.289,62.062 58.369,62.107 58.422,61.791 "/><polygon fill="#000000" points="61.092,63.343 60.988,63.614 61.061,63.656 61.102,63.349 "/><path fill="#000000" d="M52.959,59.222c0.01-0.014,0.027-0.014,0.039-0.024c0.014-0.012,0.018-0.031,0.035-0.04l0.035-0.017  l0.072-0.167l-2.357,1.363l0.438,0.247l0.072-0.054c0.012-0.009,0.027-0.004,0.041-0.01c0-0.001,0-0.002,0.002-0.003l1.682-0.965  l0.031-0.021l-0.033-0.023L53.004,59.5C53,59.497,53,59.49,52.996,59.486c-0.021-0.018-0.043-0.035-0.057-0.062  c-0.004-0.01,0.002-0.021-0.002-0.031c-0.006-0.024-0.006-0.044-0.004-0.069c0.004-0.028,0.006-0.051,0.02-0.076  C52.957,59.24,52.953,59.229,52.959,59.222z"/><polygon fill="#000000" points="60.029,62.728 60.012,62.716 59.889,63 59.975,63.05 "/><path fill="#000000" d="M56.742,61.658c-0.004-0.003-0.01-0.002-0.014-0.006c-0.004-0.006,0-0.013-0.004-0.019  c-0.014-0.022-0.014-0.046-0.02-0.072c-0.004-0.026-0.01-0.049-0.004-0.073c0.002-0.007-0.004-0.013-0.002-0.02  c0.008-0.021,0.027-0.028,0.041-0.045c0.012-0.017,0.012-0.038,0.029-0.051l0.061-0.045l0.08-0.179l-0.432,0.249  c-0.031,0.019-0.066,0.027-0.1,0.027h-0.025c-0.023,0-0.039-0.018-0.059-0.024l-1.844,1.055l0.451,0.249L56.742,61.658z"/><path fill="#000000" d="M55.682,60.748c0.004-0.005,0.012-0.003,0.018-0.007s0.004-0.012,0.01-0.016l0.027-0.018l0.023-0.053  l-2.217,1.284l0.439,0.253l1.811-1.062l-0.018-0.01c-0.01-0.005-0.012-0.017-0.02-0.023c-0.008-0.006-0.02-0.005-0.027-0.013  c0-0.001-0.002,0-0.002-0.001l-0.051-0.053c-0.006-0.006-0.004-0.015-0.008-0.021c-0.004-0.005-0.012-0.003-0.016-0.008  c-0.012-0.018-0.006-0.038-0.01-0.057c-0.008-0.026-0.018-0.049-0.016-0.075c0.004-0.026,0.018-0.045,0.029-0.067  C55.666,60.785,55.666,60.764,55.682,60.748z"/><path fill="#000000" d="M58.645,62.646c-0.033,0.019-0.066,0.027-0.102,0.027H58.52c-0.035,0-0.07-0.009-0.104-0.028l-0.273-0.163  l-1.818,1.039l0.434,0.252l5.312-3.057l-0.047-0.028L58.645,62.646z"/><polygon fill="#000000" points="53.453,59.258 53.521,59.298 53.562,59.007 "/><path fill="#000000" d="M51.326,58.394c0.004-0.021,0.006-0.036,0.016-0.055c0.004-0.009,0-0.019,0.006-0.026  c0.01-0.016,0.029-0.018,0.043-0.029s0.018-0.031,0.035-0.039l0.033-0.017l0.086-0.191l-0.439,0.253  c-0.002,0.001-0.002,0.002-0.004,0.003c-0.008,0.005-0.018,0.003-0.025,0.007c-0.025,0.012-0.051,0.019-0.068,0.019  c-0.002,0-0.004,0.002-0.006,0.002c-0.031,0-0.062-0.008-0.092-0.022l-0.168-0.088l-1.809,1.055l0.443,0.257L51.326,58.394z"/><polygon fill="#000000" points="49.682,57.094 49.752,57.134 49.793,56.842 "/><polygon fill="#000000" points="50.877,57.448 50.77,57.718 50.844,57.757 50.889,57.455 "/><polygon fill="#000000" points="51.846,58.342 51.92,58.383 51.959,58.087 "/><path fill="#000000" d="M50.303,57.922c-0.014-0.016-0.033-0.027-0.043-0.048c-0.004-0.007,0.002-0.015,0-0.022  c-0.01-0.024-0.006-0.047-0.004-0.072c0-0.027,0-0.051,0.012-0.074c0.002-0.008-0.002-0.016,0.002-0.022  c0.012-0.018,0.031-0.021,0.047-0.033c0.014-0.014,0.02-0.034,0.037-0.043l0.037-0.018l0.064-0.163l-0.445,0.257  c-0.031,0.019-0.066,0.027-0.1,0.027c-0.021,0-0.033-0.024-0.053-0.03c-0.004,0.001-0.004,0.005-0.006,0.007l-0.324,0.173  l-0.068,0.044c-0.002,0.001-0.004,0.001-0.006,0.002s-0.002,0.003-0.004,0.004l-1.438,0.815l0.443,0.259L50.303,57.922z"/><path fill="#000000" d="M54.029,60.025c-0.004-0.013-0.002-0.025-0.002-0.038c-0.002-0.022-0.014-0.044-0.008-0.067  c0.002-0.002,0.004-0.002,0.004-0.004c0.008-0.023,0.029-0.037,0.047-0.057c0.016-0.021,0.027-0.046,0.051-0.059  c0.002-0.001,0.002-0.003,0.004-0.004l0.037-0.018l0.076-0.199l-0.461,0.266c-0.031,0.018-0.066,0.026-0.1,0.026  c-0.039,0-0.078-0.011-0.111-0.034l-0.041-0.027l-0.227,0.135c-0.008,0.004-0.016,0.003-0.023,0.007  c-0.006,0.002-0.006,0.008-0.012,0.01l-0.057,0.021l-1.5,0.88l0.443,0.261L54.029,60.025z"/><path fill="#000000" d="M60.473,63.765c-0.01-0.024-0.006-0.047-0.004-0.072c0-0.027-0.002-0.05,0.01-0.074  c0.004-0.007,0-0.015,0.004-0.021c0.01-0.018,0.031-0.021,0.047-0.034c0.014-0.014,0.018-0.034,0.037-0.043l0.037-0.018l0.07-0.185  l-0.424,0.246c-0.033,0.019-0.066,0.027-0.102,0.027h-0.025c-0.029,0-0.059-0.007-0.088-0.02l-0.076-0.037l-0.193,0.114l-0.025,0.03  c-0.002,0.002-0.004,0.001-0.006,0.002c-0.008,0.009-0.02,0.011-0.029,0.018c-0.008,0.006-0.008,0.018-0.018,0.022l-1.535,0.86  l0.443,0.26L60.473,63.765z"/><polygon fill="#000000" points="54.648,59.624 54.545,59.898 54.602,59.934 54.654,59.627 "/><path fill="#000000" d="M52.178,58.933c-0.031,0.019-0.066,0.027-0.1,0.027c-0.027,0-0.045-0.028-0.068-0.04  c-0.031-0.011-0.061-0.02-0.08-0.042l-0.266-0.139l-1.814,1.06l0.441,0.253l5.336-3.08l-0.031-0.02L52.178,58.933z"/><path fill="#000000" d="M49.203,57.066c0.018-0.023,0.027-0.051,0.055-0.065l0.037-0.02l0.025-0.06l-2.23,1.281l0.453,0.249  l0.104-0.051l0.002-0.002c0.002-0.001,0.004-0.002,0.006-0.003l1.59-0.931l0.076-0.049c0.002-0.001,0.006,0,0.008-0.001  c0.002-0.002,0.002-0.005,0.004-0.006l0.025-0.014l-0.018-0.011l-0.055-0.02c-0.006-0.002-0.006-0.008-0.012-0.01  c-0.039-0.017-0.076-0.043-0.1-0.085c0-0.002,0-0.003,0-0.005c-0.012-0.022-0.004-0.048-0.008-0.073  c-0.002-0.027-0.012-0.053-0.004-0.078c0.002-0.001,0-0.003,0-0.004C49.17,57.091,49.191,57.083,49.203,57.066z"/><polygon fill="#000000" points="63.773,64.927 63.668,65.17 63.732,65.208 "/><polygon fill="#000000" points="63.078,64.517 66.098,62.774 66.076,62.595 63.107,64.306 "/><polygon fill="#000000" points="61.471,63.603 64.496,61.86 64.471,61.655 61.504,63.363 "/><polygon fill="#000000" points="63.785,61.09 63.799,61.207 63.895,61.152 "/><path fill="#000000" d="M65.357,62.146c0.006,0.006,0.018,0.004,0.023,0.011l0.135-0.083l-0.635-0.368l0.021,0.188l0.436,0.229  C65.348,62.127,65.348,62.139,65.357,62.146z"/><polygon fill="#000000" points="64.145,65.152 67.168,63.411 67.145,63.205 64.178,64.915 "/><polygon fill="#000000" points="58.785,62.04 61.799,60.304 61.773,60.099 58.824,61.81 "/><path fill="#000000" d="M62.609,60.567c0.012,0.005,0.025,0,0.037,0.007l0.057,0.035l0.129-0.074l-0.65-0.384l0.021,0.18  l0.367,0.216C62.586,60.55,62.596,60.562,62.609,60.567z"/><polygon fill="#000000" points="60.033,58.921 60.049,59.028 60.131,58.981 "/><polygon fill="#000000" points="66.484,62.645 66.5,62.76 66.594,62.707 "/><polygon fill="#000000" points="61.109,59.532 61.123,59.651 61.219,59.596 "/><polygon fill="#000000" points="60.393,62.98 63.398,61.225 63.375,61.043 60.432,62.755 "/><polygon fill="#000000" points="62.693,64.275 62.59,64.545 62.664,64.584 62.707,64.283 "/><path fill="#000000" d="M68.512,64.432l-0.033-0.02l-3.391,1.954c-0.031,0.019-0.066,0.027-0.1,0.027s-0.068-0.009-0.1-0.026  l-0.297-0.168l-1.824,1.04l0.436,0.253L68.512,64.432z"/><polygon fill="#000000" points="57.701,61.433 60.725,59.692 60.701,59.486 57.734,61.196 "/><polygon fill="#000000" points="65.246,65.766 68.266,64.022 68.242,63.842 65.277,65.552 "/><path fill="#000000" d="M61.318,64.201c-0.031,0.019-0.066,0.027-0.1,0.027c-0.002,0-0.002-0.001-0.004-0.001  c0,0,0,0.001-0.002,0.001c-0.004,0-0.006-0.004-0.01-0.004c-0.031-0.003-0.062-0.009-0.09-0.026l-0.219-0.136l-1.818,1.059  l0.439,0.254l5.314-3.068l-0.115-0.061L61.318,64.201z"/><path fill="#000000" d="M64.236,65.843c0.002-0.022,0.002-0.041,0.012-0.062c0.004-0.007,0-0.015,0.004-0.021  c0.01-0.018,0.031-0.021,0.047-0.033c0.014-0.014,0.02-0.034,0.037-0.043l0.037-0.018l0.066-0.171l-0.449,0.26  c-0.031,0.019-0.066,0.027-0.1,0.027c-0.025,0-0.039-0.026-0.061-0.035c-0.033-0.011-0.064-0.02-0.088-0.045l-0.07-0.04l-1.82,1.062  l0.436,0.258L64.236,65.843z"/><polygon fill="#000000" points="64.861,65.521 64.754,65.793 64.83,65.834 64.875,65.529 "/><path fill="#000000" d="M59.455,62.91c0.006-0.004,0.012-0.002,0.018-0.006c0.004-0.004,0.004-0.011,0.01-0.014l0.025-0.017  l0.076-0.179l-2.34,1.357l0.438,0.257l0.049-0.026c0.01-0.011,0.021-0.017,0.033-0.025c0.008-0.006,0.008-0.017,0.016-0.021  l1.686-0.955l0.029-0.029c0-0.001,0.002,0,0.002-0.001V63.25c-0.002-0.001-0.002,0-0.002-0.001c0,0,0-0.001-0.002-0.001  c0-0.001-0.002-0.001-0.002-0.002l-0.049-0.053c-0.004-0.006-0.002-0.014-0.006-0.02c-0.004-0.004-0.01-0.002-0.014-0.007  c-0.012-0.019-0.004-0.039-0.01-0.059c-0.008-0.026-0.018-0.049-0.014-0.075c0.002-0.025,0.018-0.043,0.031-0.065  C59.439,62.948,59.439,62.926,59.455,62.91z"/><path fill="#000000" d="M62.1,64.504c0.01-0.015,0.029-0.017,0.043-0.027c0.012-0.012,0.016-0.03,0.031-0.038l0.033-0.017  l0.021-0.055l-2.24,1.292l0.438,0.254l1.834-1.062l-0.018-0.01c-0.002-0.002-0.002-0.006-0.006-0.008  c-0.002-0.002-0.008-0.001-0.01-0.003l-0.074-0.05c-0.004-0.003-0.004-0.01-0.008-0.013c-0.021-0.018-0.043-0.035-0.057-0.062  c-0.006-0.009,0-0.019-0.002-0.028c-0.01-0.025-0.008-0.048-0.008-0.074c0.002-0.027,0.004-0.049,0.016-0.072  C62.098,64.522,62.094,64.513,62.1,64.504z"/><polygon fill="#000000" points="67.553,63.252 67.568,63.391 67.678,63.324 "/><path fill="#000000" d="M63.188,65.379c-0.01-0.012-0.025-0.021-0.033-0.035c-0.004-0.008,0.002-0.017-0.002-0.025  c-0.008-0.024-0.006-0.047-0.004-0.074c0-0.026,0-0.049,0.012-0.073c0.004-0.008,0-0.017,0.004-0.024  c0.012-0.016,0.031-0.019,0.045-0.03c0.014-0.013,0.018-0.032,0.035-0.041l0.037-0.019l0.084-0.193l-0.443,0.255  c-0.023,0.014-0.049,0.018-0.076,0.021c-0.008,0.001-0.014,0.01-0.021,0.01s-0.012-0.008-0.02-0.008  c-0.016-0.002-0.031-0.01-0.047-0.015l-1.828,1.063l0.439,0.255L63.188,65.379z"/><polygon fill="#000000" points="26.529,43.428 29.545,41.687 29.521,41.481 26.562,43.188 "/><polygon fill="#000000" points="19.049,34.798 23.004,37.083 23.336,37.263 23.338,37.265 23.342,37.266 24.615,38.004   24.92,38.181 24.92,38.182 24.922,38.182 25.688,38.639 26.01,38.816 26.012,38.818 26.014,38.818 26.039,38.832 26.041,38.834   27.283,39.556 27.609,39.729 27.611,39.731 27.615,39.731 28.385,40.168 28.391,40.174 28.398,40.176 28.695,40.376 29.453,40.806   29.779,40.981 29.781,40.983 29.785,40.984 31.057,41.723 31.059,41.725 31.061,41.725 31.387,41.924 32.152,42.358 32.154,42.359   32.457,42.533 33.756,43.274 34.066,43.453 34.066,43.455 34.07,43.455 34.832,43.913 34.832,43.914 35.15,44.086 35.152,44.088   35.18,44.104 35.92,44.521 35.926,44.526 35.934,44.528 36.234,44.729 37.5,45.467 37.826,45.642 37.826,45.644 37.83,45.644   38.592,46.074 38.922,46.25 38.924,46.253 38.928,46.254 40.201,46.992 40.205,46.998 40.213,46.999 40.521,47.206 40.529,47.21   40.529,47.211 41.27,47.627 41.271,47.627 41.596,47.809 41.598,47.81 42.365,48.243 42.369,48.248 42.377,48.25 42.682,48.452   43.971,49.183 43.973,49.184 44.281,49.362 44.283,49.362 44.299,49.371 44.305,49.375 45.041,49.798 45.043,49.801 45.045,49.801   45.373,50 46.641,50.735 46.975,50.912 46.977,50.915 46.98,50.915 47.738,51.348 48.049,51.522 48.051,51.525 48.053,51.525   48.807,51.983 49.135,52.159 49.139,52.163 49.141,52.163 50.406,52.899 50.408,52.899 50.742,53.074 50.748,53.08 50.754,53.081   51.512,53.542 51.816,53.72 53.078,54.453 53.08,54.453 53.416,54.629 53.42,54.633 53.424,54.633 54.184,55.066 54.184,55.068   54.186,55.068 54.525,55.271 54.525,55.271 55.252,55.702 55.58,55.883 55.58,55.884 55.582,55.884 56.857,56.617 56.861,56.62   56.863,56.621 57.195,56.827 57.953,57.256 57.955,57.257 58.268,57.439 58.285,57.449 58.289,57.451 59.564,58.172 59.564,58.174   59.568,58.174 59.869,58.354 59.871,58.354 59.879,58.359 59.891,58.367 60.619,58.811 60.955,58.984 60.959,58.987 60.963,58.988   61.723,59.422 61.723,59.423 62.033,59.6 62.033,59.601 62.035,59.601 63.334,60.364 63.334,60.365 63.639,60.547 63.66,60.56   63.664,60.562 64.393,60.976 64.727,61.154 64.73,61.157 64.734,61.158 66.008,61.896 66.01,61.899 66.012,61.899 66.334,62.098   66.336,62.098 67.098,62.533 67.406,62.706 67.406,62.707 67.408,62.707 68.168,63.144 68.168,63.146 68.17,63.146 68.502,63.345   68.527,63.359 68.531,63.361 70.129,64.28 71.094,63.679 19.609,33.959 "/><polygon fill="#000000" points="64.686,69.777 63.852,69.326 63.85,69.324 63.846,69.323 16.016,41.682 16.008,41.678   16.008,41.677 12.979,39.932 12.967,39.979 12.961,39.989 12.961,40 12.861,40.279 12.857,40.284 12.857,40.289 12.797,40.432   64.686,70.379 "/><polygon fill="#000000" points="71.662,63.339 19.697,33.327 19.697,33.549 71.482,63.441 "/><path fill="#000000" d="M17.607,41.179l0.436,0.255l5.314-3.081l-0.043-0.024l-3.391,1.955c-0.031,0.019-0.066,0.027-0.1,0.027  s-0.068-0.009-0.098-0.025l-0.301-0.169L17.607,41.179z"/><polygon fill="#000000" points="19.703,39.451 19.598,39.722 19.668,39.764 19.713,39.457 "/><path fill="#000000" d="M64.43,68.442l-0.119,0.082c-0.035,0.023-0.074,0.035-0.113,0.035c-0.02,0-0.033-0.021-0.051-0.026v0.498  l0.539,0.292v-0.632c0-0.011,0.01-0.017,0.012-0.026s-0.006-0.019-0.004-0.028l0.01-0.031L64.43,68.442z"/><polygon fill="#000000" points="75.586,88.822 75.586,88.548 71.857,86.402 71.812,89.538 73.061,90.263 "/><path fill="#000000" d="M75.586,70.846l-2.375,1.373v0.088c0,0.018-0.016,0.029-0.02,0.046s0.004,0.034-0.006,0.05l-0.553,1.012  l-0.398,1.006l-0.172,0.989l-0.199,10.535l3.723,2.141V70.846z"/><path fill="#000000" d="M64.834,68.214l0.094-0.255c0.002-0.007,0.01-0.009,0.014-0.015c0.002-0.007-0.002-0.014,0.002-0.021  l0.279-0.461c0.004-0.007,0.014-0.007,0.018-0.013s0.002-0.015,0.008-0.021l0.016-0.017l-0.658,0.382  c0.021,0.014,0.049,0.019,0.064,0.041c0.002,0.001,0,0.003,0.002,0.005c0.025,0.014,0.055,0.019,0.072,0.044  c0.059,0.081,0.041,0.187-0.029,0.256L64.834,68.214z"/><path fill="#000000" d="M66.672,68.936c0.004-0.006,0-0.014,0.004-0.02l0.283-0.458c0.004-0.006,0.014-0.006,0.018-0.012  s0.002-0.014,0.006-0.019l0.332-0.358c0.006-0.008,0.018-0.006,0.025-0.012c0.008-0.007,0.008-0.019,0.018-0.023l0.377-0.229  c0.002,0,0.002-0.001,0.002-0.001l8.617-5.26l0.379-0.357l0.373-0.472l0.309-0.493l0.189-0.553l0.057-0.384l-0.51-0.298  l-0.049,0.258c0,0.006-0.006,0.008-0.008,0.014c0,0.005,0.004,0.01,0.002,0.015l-0.201,0.583c-0.004,0.008-0.01,0.011-0.014,0.019  c-0.002,0.005,0,0.01-0.002,0.015l-0.307,0.539c-0.002,0.004-0.01,0.003-0.012,0.007c-0.004,0.006-0.002,0.013-0.006,0.019  l-0.379,0.479c-0.004,0.005-0.012,0.003-0.016,0.008c-0.006,0.006-0.004,0.014-0.01,0.019l-0.436,0.382  c-0.006,0.005-0.014,0.003-0.02,0.007c-0.004,0.004-0.004,0.011-0.01,0.014l-2.061,1.248c-0.031,0.019-0.068,0.029-0.104,0.029  c-0.031,0-0.062-0.007-0.092-0.022c0,0,0-0.002-0.002-0.002c-0.002-0.001-0.004-0.001-0.006-0.002l-0.74-0.425l-0.373,0.218  L72.184,63.5c-0.004,0.003-0.01,0.002-0.014,0.005c-0.004,0.002-0.004,0.007-0.008,0.009l-0.574,0.328l-1.35,0.842  c0,0,0,0-0.002,0.001v0.001l-0.127,0.075l-3.889,2.363l-0.367,0.242l-0.301,0.323l-0.258,0.426l-0.166,0.454l-0.043,0.149v0.939  v1.066v1.225v1.682c0,0.01-0.008,0.017-0.01,0.026c0.002,0.009,0.01,0.014,0.01,0.023v0.385l0.1,0.374l1.219,0.711L66.4,75.133  c-0.002-0.009,0.004-0.017,0.004-0.025c-0.002-0.009-0.012-0.015-0.012-0.024v-5.399c0-0.014,0.012-0.022,0.016-0.035  c0.002-0.013-0.006-0.023-0.002-0.036l0.252-0.662C66.662,68.943,66.668,68.942,66.672,68.936z"/><polygon fill="#000000" points="21.678,40.619 24.699,38.886 24.666,38.674 21.717,40.387 "/><path fill="#000000" d="M26.643,39.806c0.002,0.001,0.004,0.001,0.006,0.003l0.139-0.079l-0.623-0.362l0.021,0.168l0.439,0.249  C26.635,39.789,26.635,39.8,26.643,39.806z"/><polygon fill="#000000" points="25.08,38.743 25.1,38.861 25.191,38.809 "/><polygon fill="#000000" points="24.363,42.18 27.387,40.439 27.357,40.228 24.396,41.938 "/><polygon fill="#000000" points="25.449,42.804 28.471,41.053 28.439,40.865 25.488,42.579 "/><polygon fill="#000000" points="27.77,40.278 27.787,40.416 27.895,40.35 "/><path fill="#000000" d="M71.855,74.314c0.002-0.006-0.004-0.012,0-0.019l0.412-1.045c0.002-0.004,0.008-0.005,0.01-0.009  s-0.002-0.01,0-0.014l0.379-0.69l-4.002,2.304l0.461,0.273c0.014,0.009,0.018,0.027,0.027,0.039  c0.014,0.011,0.031,0.013,0.039,0.027l0.381,0.609c0.006,0.01,0,0.021,0.004,0.031c0.006,0.01,0.016,0.014,0.02,0.024l0.209,0.815  c0.002,0.008-0.004,0.015-0.004,0.022c0.002,0.009,0.01,0.015,0.01,0.023l0.324,17.544l1.215-0.694l0.047-2.204l0.023-1.704  l0.051-3.594c0,0,0,0,0-0.001l0.201-10.668c0-0.006,0.006-0.009,0.008-0.015c0-0.006-0.006-0.01-0.004-0.016l0.178-1.021  C71.846,74.326,71.854,74.323,71.855,74.314z"/><polygon fill="#000000" points="20.082,39.707 23.102,37.968 23.078,37.763 20.117,39.472 "/><polygon fill="#000000" points="22.76,41.261 25.777,39.495 25.754,39.314 22.793,41.024 "/><polygon fill="#000000" points="22.217,37.089 22.217,37.235 22.217,37.237 22.375,37.332 22.508,37.257 "/><path fill="#000000" d="M23.871,38.202c0.012,0.009,0.021,0.014,0.031,0.025c0.006,0.002,0.012-0.002,0.018,0.001l0.055,0.027  l0.141-0.08l-0.629-0.365l0.018,0.165l0.352,0.205C23.863,38.186,23.863,38.196,23.871,38.202z"/><path fill="#000000" d="M48.404,56.739c-0.029,0.018-0.061,0.024-0.092,0.025c-0.004,0-0.006,0.004-0.01,0.004  s-0.006-0.005-0.01-0.006c-0.031-0.002-0.062-0.008-0.09-0.024l-0.197-0.117l-1.818,1.042l0.434,0.251l5.314-3.06l-0.129-0.08  L48.404,56.739z"/><path fill="#000000" d="M91.029,35.474L32.971,1.958L26.83,5.521l0.615,0.346c0.008-0.004,0.008-0.013,0.016-0.016l0.061-0.027  c0.006-0.003,0.012,0.002,0.016,0c0.025-0.01,0.049-0.004,0.076-0.003c0.025,0.002,0.049-0.001,0.072,0.011  c0.006,0.002,0.012-0.001,0.018,0.002l56.236,32.477c0.008,0.005,0.008,0.015,0.016,0.021c0.008,0.007,0.02,0.007,0.027,0.015  c0.002,0.001,0.002,0.001,0.004,0.002c0.008,0.01,0.006,0.024,0.014,0.035c0.012,0.014,0.031,0.017,0.041,0.034l0.025,0.049  c0.002,0.003-0.002,0.007,0,0.01s0.006,0.004,0.008,0.007c0.002,0.005-0.002,0.009,0,0.014c0.006,0.021,0,0.04,0,0.062l0.811,0.459  L91.029,35.474z"/><path fill="#000000" d="M78.283,60.176l-0.221,0.13l-0.064,0.441c-0.002,0.007-0.008,0.011-0.01,0.019  c-0.002,0.006,0.002,0.012,0,0.019l-0.201,0.588c-0.004,0.01-0.014,0.014-0.018,0.022c-0.004,0.006,0,0.013-0.004,0.019  l-0.332,0.529c-0.002,0.003-0.006,0.002-0.008,0.005c-0.002,0.004,0,0.009-0.004,0.013l-0.383,0.484  c-0.004,0.005-0.01,0.003-0.014,0.007s-0.002,0.011-0.006,0.015l-0.41,0.387c-0.006,0.005-0.014,0.003-0.02,0.008  s-0.006,0.014-0.014,0.018l-8.631,5.269c-0.002,0-0.002,0-0.002,0l-0.355,0.215l-0.297,0.322l-0.266,0.429l-0.232,0.606v5.341  l0.088,0.336l0.984-0.562l0.301-0.179c0.002-0.001,0.004,0,0.006-0.001s0.002-0.002,0.002-0.003l0.186-0.1l4.551-2.62l2.771-1.602  c0.002,0,0.002-0.001,0.002-0.002l2.6-1.524V60.176z"/><path fill="#000000" d="M84.482,39.249l-0.701-0.398l-0.031,0.016c-0.029,0.014-0.059,0.021-0.09,0.021  c-0.02,0-0.039-0.003-0.061-0.01c-0.006-0.002-0.006-0.008-0.012-0.01c-0.008-0.004-0.018-0.003-0.027-0.008l-0.002-0.001  c-0.002-0.001-0.002-0.002-0.004-0.002L27.344,6.385c-0.008-0.005-0.01-0.015-0.016-0.021c-0.023-0.017-0.033-0.036-0.047-0.061  c-0.014-0.022-0.025-0.041-0.027-0.066c-0.002-0.009-0.012-0.016-0.012-0.025l-0.814-0.458l-6.127,3.538l58.031,33.52L84.482,39.249  z"/><polygon fill="#000000" points="75.986,88.823 77.529,89.723 77.736,89.787 77.969,89.808 78.219,89.765 78.283,89.731   78.283,69.268 75.986,70.615 75.986,88.432 "/><path fill="#000000" d="M46.516,55.51c0.01-0.015,0.027-0.016,0.041-0.027c0.014-0.011,0.016-0.028,0.031-0.036l0.033-0.017  l0.068-0.179l-2.363,1.361l0.436,0.254l1.83-1.06l-0.027-0.019c-0.006-0.004-0.004-0.012-0.01-0.016  c-0.02-0.017-0.041-0.033-0.053-0.058c-0.006-0.01,0-0.02-0.002-0.029c-0.01-0.025-0.01-0.048-0.008-0.075  c0.002-0.026,0.004-0.048,0.016-0.071C46.514,55.529,46.51,55.519,46.516,55.51z"/><polygon fill="#000000" points="85.084,39.79 90.789,36.5 90.789,36.499 91.229,36.248 91.229,35.819 85.084,39.362 "/><polygon fill="#000000" points="47.646,75.536 47.646,75.534 47.877,75.358 47.877,75.084 43.146,78.786 43.182,79.021   47.645,75.536 "/><path fill="#000000" d="M41.965,79.174c-0.018,0.004-0.035,0.007-0.053,0.007c-0.035,0-0.07-0.009-0.102-0.027l-0.363-0.212  l0.031,0.168l0.588,0.341l0.744-0.206l-0.043-0.29L41.965,79.174z"/><polygon fill="#000000" points="47.225,74.247 47.072,74.357 47.066,74.359 47.064,74.362 46.072,75.021 41.613,77.964   41.422,78.464 41.939,78.766 42.842,78.518 47.85,74.599 "/><path fill="#000000" d="M45.377,80.78c-0.02,0.005-0.037,0.008-0.055,0.008c-0.033,0-0.068-0.009-0.1-0.026l-0.262-0.148  l0.086,0.481l0.461,0.268l0.736-0.208l-0.09-0.595L45.377,80.78z"/><polygon fill="#000000" points="44.223,80.188 44.311,80.661 44.592,80.827 44.506,80.354 "/><polygon fill="#000000" points="64.686,72.064 12.822,42.14 12.822,43.357 64.686,73.285 "/><path fill="#000000" d="M68.018,75.942l-0.141-0.655l-0.881,0.504c-0.033,0.018-0.066,0.026-0.1,0.026  c-0.02,0-0.039-0.003-0.057-0.009l-0.18-0.053c-0.006-0.002-0.006-0.008-0.012-0.01c-0.01-0.004-0.021-0.003-0.031-0.009  l-1.705-0.994c-0.004-0.002-0.004-0.007-0.006-0.009c-0.039-0.025-0.07-0.062-0.084-0.109c0-0.002-0.002-0.002-0.002-0.004  l-0.127-0.479c-0.002-0.009,0.004-0.017,0.004-0.026c-0.002-0.009-0.012-0.015-0.012-0.024v-0.295L24.309,50.519v7.971l0.027,0.016  c0,0,0,0.002,0.002,0.002l43.857,25.318L68.018,75.942z"/><polygon fill="#000000" points="23.768,59.033 15.359,63.885 15.115,64.091 14.906,64.379 14.771,64.699 14.705,65.017   14.705,67.577 24.033,62.184 24.033,58.88 23.77,59.033 "/><polygon fill="#000000" points="79.248,43.616 79.248,93.61 89.135,87.905 89.137,87.903 90.688,87.015 90.688,37.019   84.984,40.309 "/><polygon fill="#000000" points="46.217,80.125 50.516,76.144 49.74,75.7 48.596,76.472 48.594,76.473 44.395,79.237 44.197,79.711   44.787,80.056 45.348,80.373 "/><polygon fill="#000000" points="23.908,58.489 23.908,50.289 23.869,50.267 23.869,58.513 "/><polygon fill="#000000" points="22.016,57.556 22.043,57.648 22.133,57.724 23.469,58.51 23.469,50.033 22.016,49.175   22.016,57.125 "/><path fill="#000000" d="M69.541,95.396c0.006-0.004,0.004-0.012,0.01-0.017l0.279-0.229c0.006-0.004,0.012-0.001,0.016-0.005  c0.006-0.003,0.006-0.01,0.01-0.013l8.668-5.024l-0.047-0.028l-0.105,0.054c-0.014,0.007-0.027,0.007-0.041,0.011  c-0.006,0.001-0.01,0.008-0.016,0.009l-0.303,0.052c-0.012,0.002-0.023,0.003-0.033,0.003c-0.006,0-0.012,0-0.018-0.001  l-0.279-0.024c-0.002,0-0.004-0.003-0.006-0.003c-0.012-0.001-0.025-0.002-0.037-0.006l-0.252-0.079  c-0.006-0.002-0.008-0.008-0.012-0.01c-0.01-0.004-0.021-0.002-0.029-0.008l-1.561-0.909l-2.623,1.496v0.001l-1.377,0.808  l-0.049,2.206c0,0.01-0.008,0.015-0.01,0.023c-0.004,0.026-0.016,0.045-0.029,0.067s-0.023,0.042-0.045,0.058  c-0.008,0.006-0.008,0.017-0.016,0.021l-1.605,0.918c-0.029,0.016-0.059,0.022-0.09,0.023c-0.002,0-0.004,0.003-0.006,0.003  s-0.004,0-0.004,0c-0.035,0-0.07-0.009-0.102-0.027l-1.352-0.791c-0.008-0.005-0.008-0.015-0.014-0.02  c-0.021-0.017-0.033-0.037-0.047-0.061c-0.012-0.021-0.023-0.039-0.027-0.064c-0.002-0.008-0.01-0.013-0.01-0.021l-0.014-0.357  l-0.891,0.514l-0.256,0.207l-0.229,0.296l-0.129,0.305l-0.049,0.32v2.801l2.199,1.27v-2.583c0-0.005,0.006-0.009,0.006-0.014  s-0.004-0.009-0.004-0.015l0.053-0.358c0-0.01,0.01-0.014,0.012-0.022c0.002-0.008-0.002-0.016,0-0.023l0.152-0.381  c0.004-0.011,0.016-0.014,0.021-0.023s0.002-0.022,0.01-0.031l0.26-0.307C69.527,95.4,69.535,95.402,69.541,95.396z"/><polygon fill="#000000" points="69.818,95.677 69.59,95.947 69.461,96.272 69.414,96.596 69.414,99.162 78.719,93.768   78.719,90.459 70.07,95.472 "/><path fill="#000000" d="M68.604,84.173l0.051,3.667l0.102,5.267l0.021,0.579l0.947,0.555L69.4,76.736l-0.193-0.76l-0.338-0.542  l-0.518-0.308c-0.002-0.001-0.002-0.004-0.004-0.006c-0.002-0.001-0.006,0-0.008-0.002l-0.078-0.056l-0.021,0.013l0.174,0.804  c0,0.007-0.004,0.012-0.004,0.019c0.002,0.007,0.008,0.012,0.008,0.019l0.186,8.254V84.173L68.604,84.173z"/><path fill="#000000" d="M47.516,82.354c-0.016,0.005-0.033,0.007-0.051,0.007c-0.033,0-0.066-0.008-0.098-0.024l-0.365-0.2  l0.033,0.184l0.582,0.342l0.744-0.21l-0.045-0.314L47.516,82.354z"/><polygon fill="#000000" points="78.684,59.825 78.684,68.918 78.684,89.74 78.848,89.837 78.848,43.85 78.684,43.945 "/><polygon fill="#000000" points="84.684,39.594 78.533,43.157 78.533,43.57 78.947,43.328 78.949,43.328 84.684,40.021 "/><path fill="#000000" d="M53.828,78.651v0.123v0.28v0.092l14.422,8.348l-0.045-3.203L24.434,59.023v3.16l21.521,12.435l0.799-0.53  v-0.229c0-0.019,0.016-0.031,0.021-0.049c0.004-0.018-0.004-0.036,0.006-0.053c0.006-0.009,0.016-0.009,0.021-0.017  c0.016-0.02,0.035-0.029,0.057-0.043c0.025-0.014,0.045-0.026,0.072-0.029c0.008-0.001,0.014-0.01,0.023-0.01  c0.018,0,0.029,0.015,0.047,0.02s0.037-0.002,0.055,0.008l0.256,0.15l0.863,0.485c0.008,0.005,0.01,0.017,0.018,0.022  c0.021,0.016,0.031,0.035,0.045,0.059c0.014,0.022,0.025,0.042,0.029,0.067c0,0.01,0.01,0.017,0.01,0.026v0.177v0.791v0.1v0.281  v0.112l0.197,0.112l1.143-0.771c0.012-0.007,0.023-0.002,0.035-0.007c0.023-0.011,0.045-0.014,0.072-0.014  c0.025-0.001,0.047,0,0.07,0.009c0.012,0.004,0.023-0.002,0.033,0.004l1.123,0.64c0.01,0.006,0.01,0.018,0.02,0.024  c0.008,0.007,0.02,0.005,0.027,0.014c0.012,0.013,0.01,0.03,0.018,0.044c0.014,0.024,0.023,0.044,0.025,0.07  c0.004,0.026-0.002,0.047-0.01,0.072c-0.004,0.016,0.004,0.032-0.006,0.048c-0.004,0.008-0.016,0.006-0.021,0.013  c-0.008,0.011-0.006,0.025-0.016,0.035l-4.457,4.128l0.078,0.517l3.953-3.669c0.002-0.002,0.006-0.001,0.008-0.003  s0.002-0.005,0.004-0.007l0.119-0.097c0.037-0.056,0.088-0.099,0.158-0.099c0.111,0,0.201,0.09,0.201,0.2  c0,0.005-0.006,0.009-0.006,0.015c0,0.005,0.006,0.008,0.006,0.014v0.2v0.093l0.457,0.282l0.797-0.531v-0.228  c0-0.018,0.016-0.028,0.02-0.045c0.004-0.016-0.004-0.031,0.004-0.047c0.004-0.01,0.018-0.012,0.023-0.021  c0.016-0.021,0.033-0.033,0.057-0.048c0.023-0.014,0.041-0.023,0.068-0.027c0.01-0.002,0.018-0.013,0.029-0.013  c0.018,0,0.027,0.015,0.045,0.019c0.016,0.004,0.031-0.004,0.047,0.004l0.254,0.131c0.002,0.001,0.002,0.003,0.002,0.004  c0.004,0.001,0.006,0,0.008,0.001l0.867,0.509c0.008,0.005,0.008,0.016,0.016,0.021c0.021,0.016,0.031,0.035,0.045,0.059  c0.012,0.023,0.023,0.042,0.027,0.068c0.002,0.009,0.01,0.015,0.01,0.024v0.181V78.651z"/><polygon fill="#000000" points="52.779,77.439 52.633,77.557 52.623,77.56 52.619,77.566 51.625,78.229 51.623,78.229   47.168,81.178 46.98,81.665 47.49,81.945 48.393,81.702 53.404,77.807 "/><path fill="#000000" d="M50.732,77.805c-0.02-0.016-0.029-0.036-0.043-0.06c-0.012-0.021-0.025-0.039-0.029-0.064l-2.652,2.461  l3.135-2.073l-0.396-0.244C50.74,77.819,50.738,77.811,50.732,77.805z"/><polygon fill="#000000" points="48.734,82.225 53.201,78.723 53.203,78.721 53.406,78.566 53.408,78.565 53.408,78.564   53.428,78.55 53.428,78.296 48.697,81.972 "/><path fill="#000000" d="M20.729,40.582c0.01-0.009,0.021-0.006,0.031-0.013s0.012-0.021,0.023-0.025l0.033-0.016l0.072-0.184  l-2.367,1.37l0.441,0.256l1.811-1.062l-0.045-0.044c-0.006-0.006-0.004-0.015-0.008-0.021c-0.01-0.012-0.023-0.019-0.029-0.032  c-0.008-0.015,0-0.03-0.004-0.045c-0.006-0.026-0.008-0.048-0.004-0.074s0.014-0.045,0.027-0.067  C20.719,40.611,20.717,40.594,20.729,40.582z"/><path fill="#000000" d="M31.969,47.229C31.969,47.229,31.969,47.229,31.969,47.229c0.002-0.027,0.006-0.049,0.018-0.073  c0.004-0.009,0-0.021,0.006-0.029c0.01-0.015,0.029-0.016,0.041-0.026c0.014-0.011,0.016-0.028,0.031-0.036l0.037-0.019l0.08-0.186  l-0.434,0.249c-0.023,0.015-0.051,0.018-0.076,0.021c-0.008,0-0.012,0.008-0.018,0.008c-0.002,0-0.004-0.002-0.006-0.002  c-0.033,0-0.066-0.008-0.096-0.025l-0.141-0.078l-0.006,0.003l-1.838,1.057l0.443,0.249L31.969,47.229z"/><polygon fill="#000000" points="30.443,45.637 30.32,45.913 30.404,45.961 30.459,45.646 "/><path fill="#000000" d="M30.928,46.752c-0.006-0.005-0.002-0.013-0.006-0.019c-0.014-0.022-0.016-0.045-0.02-0.071  s-0.012-0.049-0.006-0.074c0.002-0.007-0.002-0.014,0-0.021c0.006-0.02,0.025-0.027,0.037-0.043  c0.012-0.017,0.014-0.038,0.029-0.051l0.061-0.046l0.07-0.169L30.678,46.5c-0.031,0.019-0.066,0.027-0.1,0.027h-0.027  c-0.021,0-0.043-0.012-0.064-0.02l-1.832,1.044l0.447,0.271L30.928,46.752z"/><polygon fill="#000000" points="32.602,46.891 32.488,47.159 32.561,47.202 32.604,46.892 "/><polygon fill="#000000" points="31.533,46.285 31.518,46.276 31.408,46.543 31.49,46.59 "/><polygon fill="#000000" points="34.209,47.824 34.205,47.822 34.082,48.098 34.164,48.145 "/><path fill="#000000" d="M29.826,45.879c0.01-0.014,0.029-0.015,0.041-0.025s0.014-0.027,0.029-0.035l0.039-0.021l0.018-0.041  l-2.209,1.277l0.439,0.258l1.805-1.058l-0.018-0.01c-0.004-0.002-0.004-0.007-0.008-0.009c-0.004-0.003-0.01-0.002-0.016-0.005  l-0.074-0.053c-0.006-0.004-0.006-0.013-0.01-0.018c-0.02-0.016-0.039-0.029-0.051-0.052c-0.006-0.011,0-0.021-0.002-0.032  c-0.01-0.025-0.01-0.047-0.008-0.073c0.002-0.027,0.004-0.048,0.018-0.072C29.824,45.9,29.82,45.889,29.826,45.879z"/><path fill="#000000" d="M34.672,48.862c-0.01-0.024-0.006-0.046-0.004-0.072c0-0.026,0-0.049,0.01-0.072  c0.004-0.008,0-0.017,0.004-0.024c0.012-0.018,0.031-0.02,0.045-0.032s0.018-0.032,0.035-0.041l0.033-0.017l0.078-0.2l-0.445,0.256  c0,0.001-0.002,0.001-0.002,0.002l-0.004,0.002c-0.031,0.019-0.066,0.027-0.1,0.027c-0.029,0-0.059-0.007-0.086-0.02l-0.08-0.038  l-1.805,1.054l0.445,0.256L34.672,48.862z"/><path fill="#000000" d="M29.074,45.582c-0.031,0.019-0.066,0.027-0.1,0.027c-0.006,0-0.01-0.008-0.016-0.008l-0.002,0.001  c-0.035,0-0.064-0.022-0.094-0.043c-0.004-0.002-0.008-0.001-0.012-0.003l-0.018-0.01c-0.002-0.003-0.006-0.002-0.01-0.005  l-0.002-0.002l-0.178-0.103l-1.818,1.062l0.439,0.259l5.311-3.082l-0.111-0.067L29.074,45.582z"/><polygon fill="#000000" points="35.287,48.44 35.184,48.71 35.258,48.754 35.301,48.447 "/><path fill="#000000" d="M32.818,47.747c-0.021,0.013-0.045,0.015-0.068,0.019c-0.01,0.003-0.016,0.013-0.027,0.013  c-0.006,0-0.008-0.007-0.014-0.007c-0.031-0.002-0.064-0.008-0.092-0.025l-0.279-0.165l-1.836,1.036l0.432,0.252l5.334-3.055  l-0.051-0.03L32.818,47.747z"/><path fill="#000000" d="M25.525,43.498c0.004-0.021,0.006-0.039,0.018-0.059c0.004-0.009,0-0.018,0.004-0.025  c0.01-0.015,0.029-0.016,0.041-0.027c0.016-0.013,0.02-0.032,0.037-0.041l0.035-0.017l0.08-0.186l-0.436,0.251  c-0.031,0.019-0.066,0.027-0.1,0.027H25.18c-0.033,0-0.066-0.008-0.098-0.025l-0.131-0.072l-1.814,1.038l0.434,0.257L25.525,43.498z  "/><polygon fill="#000000" points="23.879,42.194 23.951,42.235 23.992,41.941 "/><path fill="#000000" d="M24.498,43.024c-0.004-0.004-0.004-0.01-0.008-0.015s-0.01-0.003-0.014-0.008  c-0.012-0.018-0.008-0.038-0.012-0.058c-0.01-0.025-0.02-0.047-0.016-0.073c0.002-0.026,0.016-0.045,0.027-0.068  c0.01-0.019,0.008-0.04,0.023-0.056c0.004-0.005,0.012-0.003,0.018-0.008c0.006-0.004,0.004-0.012,0.01-0.016l0.029-0.02  l0.072-0.166l-0.42,0.241c-0.031,0.019-0.066,0.027-0.1,0.027c-0.02,0-0.031-0.023-0.051-0.029c0,0.001,0,0.002-0.002,0.003  l-1.838,1.051l0.439,0.252L24.498,43.024z"/><path fill="#000000" d="M33.635,48.029l0.061-0.048l0.084-0.188l-2.342,1.354l0.439,0.259l1.809-1.039  c-0.018-0.008-0.027-0.024-0.043-0.036c-0.012-0.01-0.031-0.007-0.041-0.021c-0.004-0.006-0.002-0.013-0.006-0.019  c-0.014-0.021-0.014-0.045-0.02-0.07c-0.006-0.026-0.014-0.049-0.008-0.075c0.002-0.006-0.004-0.012-0.002-0.019  c0.006-0.02,0.025-0.028,0.037-0.044C33.615,48.065,33.617,48.043,33.635,48.029z"/><path fill="#000000" d="M27.145,44.336c0.01-0.017,0.029-0.02,0.043-0.031s0.018-0.03,0.033-0.039l0.039-0.021l0.08-0.179  l-2.375,1.369l0.439,0.25l0.1-0.063c0.01-0.006,0.021-0.001,0.031-0.006l0.023-0.015c0.006-0.001,0.01-0.006,0.014-0.008  l1.639-0.939l0.031-0.021l-0.035-0.021c-0.004-0.003-0.004-0.008-0.008-0.011c-0.023-0.018-0.047-0.037-0.062-0.065  c-0.004-0.009,0.002-0.018-0.002-0.026c-0.01-0.025-0.008-0.048-0.008-0.074c0.002-0.026,0.002-0.049,0.012-0.072  C27.143,44.354,27.139,44.345,27.145,44.336z"/><polygon fill="#000000" points="26.047,43.443 26.117,43.483 26.158,43.181 "/><polygon fill="#000000" points="25.086,42.554 25.062,42.54 24.939,42.823 25.031,42.875 "/><polygon fill="#000000" points="27.646,44.357 27.719,44.398 27.76,44.105 "/><path fill="#000000" d="M28.223,45.121c-0.004-0.011,0.002-0.021,0.002-0.032c-0.002-0.026-0.006-0.047,0.004-0.071  c0.002-0.009-0.004-0.018,0-0.025c0.01-0.019,0.029-0.022,0.043-0.037c0.012-0.014,0.014-0.033,0.029-0.044l0.029-0.019l0.086-0.199  l-0.439,0.254c-0.025,0.016-0.055,0.02-0.082,0.022c-0.008,0.001-0.014,0.009-0.021,0.009c-0.014,0-0.027-0.014-0.041-0.018  c-0.023-0.006-0.049-0.007-0.068-0.021l-0.043-0.028l-0.225,0.137c-0.01,0.007-0.021,0.005-0.033,0.01  c-0.006,0.002-0.008,0.01-0.016,0.012l-0.053,0.016l-1.492,0.878l0.449,0.258L28.223,45.121z"/><polygon fill="#000000" points="28.84,44.721 28.721,44.995 28.801,45.041 28.854,44.728 "/><path fill="#000000" d="M23.381,42.166c0.01-0.015,0.027-0.016,0.041-0.027s0.018-0.03,0.033-0.039l0.037-0.019l0.027-0.063  l-2.234,1.285l0.451,0.248l1.805-1.037l-0.012-0.006c-0.004-0.002-0.004-0.007-0.008-0.009s-0.008-0.001-0.012-0.004l-0.066-0.045  c-0.002-0.001-0.002-0.001-0.002-0.002l-0.008-0.005c-0.004-0.003-0.004-0.008-0.008-0.011c-0.023-0.018-0.045-0.037-0.059-0.064  c-0.006-0.009,0-0.02-0.002-0.028c-0.01-0.025-0.008-0.047-0.006-0.073c0.002-0.027,0.004-0.049,0.016-0.073  C23.379,42.185,23.375,42.174,23.381,42.166z"/><path fill="#000000" d="M26.375,44.027c-0.031,0.019-0.066,0.027-0.1,0.027c-0.023,0-0.035-0.025-0.057-0.033  c-0.01-0.002-0.018-0.006-0.025-0.009c-0.002-0.001-0.006-0.001-0.008-0.002l-0.008-0.004c-0.016-0.009-0.035-0.011-0.047-0.023  l-0.277-0.138l-1.801,1.049l0.438,0.258l5.326-3.077l-0.031-0.018L26.375,44.027z"/><polygon fill="#000000" points="40.66,51.547 40.539,51.823 40.617,51.867 40.672,51.554 "/><path fill="#000000" d="M41.961,53.019c-0.023,0.014-0.049,0.017-0.074,0.021c-0.008,0.001-0.014,0.01-0.023,0.01  c-0.006,0-0.008-0.006-0.014-0.006c-0.029-0.002-0.061-0.008-0.09-0.024l-0.211-0.123l-1.834,1.048l0.436,0.253l5.332-3.054  l-0.137-0.079L41.961,53.019z"/><path fill="#000000" d="M35.52,49.299c-0.031,0.019-0.066,0.029-0.104,0.029l-0.002,0.001c-0.004,0-0.006-0.004-0.01-0.004  c-0.029-0.002-0.057-0.007-0.082-0.021l-0.25-0.135l-1.801,1.051l0.436,0.254l5.303-3.071l-0.104-0.057L35.52,49.299z"/><path fill="#000000" d="M43.855,54.208l-0.006-0.005c-0.004-0.005-0.002-0.013-0.006-0.019c-0.004-0.004-0.01-0.002-0.014-0.007  c-0.012-0.019-0.006-0.04-0.01-0.061c-0.008-0.025-0.018-0.048-0.014-0.074c0.002-0.025,0.018-0.043,0.029-0.065  c0.012-0.02,0.012-0.042,0.027-0.058c0.006-0.004,0.012-0.002,0.016-0.006c0.006-0.004,0.006-0.011,0.01-0.014l0.027-0.018  l0.086-0.196l-0.436,0.252c-0.031,0.019-0.066,0.027-0.1,0.027c-0.023,0-0.045-0.004-0.066-0.012l-0.008-0.003l-0.303,0.188  c-0.01,0.006-0.021,0.005-0.031,0.009c-0.006,0.002-0.008,0.01-0.014,0.012l-0.057,0.019l-1.424,0.825l0.449,0.26L43.855,54.208z"/><polygon fill="#000000" points="45.504,54.348 45.391,54.617 45.475,54.665 45.518,54.355 "/><polygon fill="#000000" points="44.441,53.719 44.428,53.711 44.307,53.986 44.389,54.033 "/><polygon fill="#000000" points="43.232,53.372 43.309,53.416 43.354,53.105 "/><polygon fill="#000000" points="47.111,55.271 47.008,55.54 47.076,55.581 47.119,55.275 "/><path fill="#000000" d="M47.561,56.314c-0.002-0.005,0-0.012-0.002-0.018c-0.006-0.027-0.014-0.051-0.006-0.077  c0-0.006-0.004-0.012-0.002-0.018c0.006-0.021,0.025-0.029,0.037-0.046c0.012-0.018,0.014-0.039,0.029-0.053l0.062-0.048  l0.074-0.169l-0.42,0.243c-0.029,0.018-0.062,0.024-0.094,0.025c-0.002,0-0.004,0.003-0.006,0.003c-0.004,0-0.006-0.004-0.01-0.004  c-0.037-0.002-0.074-0.011-0.105-0.033l-0.041-0.028l-1.854,1.045l0.457,0.266L47.561,56.314z"/><path fill="#000000" d="M42.783,53.302l0.064-0.05l0.031-0.071l-2.24,1.29l0.457,0.261l0.051-0.028v-0.001  c0-0.001,0.004-0.001,0.004-0.003l0.023-0.013c0-0.001,0.002,0,0.002-0.001c0.002,0,0.002-0.003,0.004-0.004  c0.01-0.006,0.01-0.018,0.02-0.023l1.605-0.91l0.066-0.046c0.004-0.002,0.008,0,0.012-0.002c0.002-0.002,0.002-0.007,0.006-0.009  l0.027-0.015l-0.018-0.011l-0.053-0.017c-0.023-0.008-0.035-0.031-0.055-0.047c-0.012-0.01-0.029-0.007-0.041-0.02  c-0.004-0.006-0.002-0.014-0.006-0.02c-0.014-0.021-0.014-0.045-0.02-0.07c-0.004-0.027-0.012-0.05-0.006-0.075  c0.002-0.008-0.004-0.014-0.002-0.021c0.008-0.021,0.027-0.028,0.039-0.045S42.768,53.314,42.783,53.302z"/><path fill="#000000" d="M45.732,55.187c-0.004,0.003-0.012,0.002-0.016,0.005c-0.014,0.006-0.029,0.009-0.043,0.012  s-0.027,0.011-0.041,0.011c-0.033,0-0.068-0.009-0.098-0.025l-0.309-0.173l-1.816,1.062l0.436,0.258l5.328-3.079l-0.055-0.03  L45.732,55.187z"/><polygon fill="#000000" points="48.189,55.895 48.066,56.172 48.146,56.219 48.191,55.896 "/><path fill="#000000" d="M44.881,54.654c0-0.004-0.002-0.007-0.002-0.01c0.008-0.021,0.029-0.03,0.041-0.047s0.012-0.037,0.029-0.05  l0.057-0.044l0.072-0.172l-0.418,0.241c-0.031,0.019-0.066,0.027-0.1,0.027h-0.023c-0.039,0-0.078-0.012-0.113-0.035l-0.115-0.079  l-1.818,1.057l0.441,0.256L44.881,54.654z"/><path fill="#000000" d="M38.438,50.935c0.002-0.019,0.006-0.033,0.016-0.052c0.004-0.009-0.002-0.02,0.004-0.028  c0.012-0.017,0.031-0.019,0.045-0.03c0.012-0.012,0.016-0.029,0.031-0.037l0.033-0.018l0.064-0.166l-0.438,0.252  c-0.031,0.019-0.066,0.027-0.1,0.027c-0.025,0-0.041-0.027-0.064-0.037c-0.031-0.011-0.062-0.02-0.084-0.043l-0.07-0.038  l-1.83,1.062l0.443,0.253L38.438,50.935z"/><path fill="#000000" d="M37.389,50.479c-0.014-0.015-0.031-0.025-0.041-0.044c-0.004-0.009,0.002-0.018-0.002-0.027  c-0.008-0.025-0.006-0.048-0.004-0.074s0.004-0.049,0.016-0.072c0.004-0.009,0-0.019,0.006-0.027  c0.012-0.017,0.031-0.018,0.047-0.03c0.012-0.011,0.016-0.027,0.031-0.035l0.035-0.018l0.084-0.187l-0.439,0.253  c-0.031,0.019-0.066,0.027-0.1,0.027h-0.023c-0.018,0-0.029-0.015-0.047-0.019l-1.848,1.065l0.443,0.255L37.389,50.479z"/><polygon fill="#000000" points="36.893,49.373 36.785,49.646 36.85,49.682 36.904,49.38 "/><polygon fill="#000000" points="37.975,50.015 37.861,50.269 37.936,50.311 "/><polygon fill="#000000" points="39.053,50.619 38.945,50.899 39.016,50.943 39.07,50.63 "/><path fill="#000000" d="M22.607,41.838c-0.029,0.018-0.061,0.024-0.094,0.025c-0.004,0.001-0.006,0.005-0.01,0.005  c-0.01,0-0.018-0.01-0.027-0.011c-0.023-0.004-0.047-0.007-0.068-0.019l-0.205-0.118l-1.854,1.048l0.443,0.245l5.33-3.055  l-0.131-0.074L22.607,41.838z"/><path fill="#000000" d="M41.115,52.582c0-0.001,0-0.002,0-0.002c-0.008-0.024-0.006-0.046-0.004-0.071  c0.002-0.027,0.002-0.05,0.014-0.074c0.004-0.009,0-0.018,0.004-0.025c0.01-0.017,0.029-0.018,0.043-0.03s0.02-0.032,0.037-0.041  l0.037-0.019l0.084-0.189l-0.439,0.254c-0.031,0.019-0.066,0.027-0.1,0.027h-0.025c-0.031,0-0.062-0.007-0.092-0.022l-0.047-0.024  l-1.828,1.045l0.441,0.253L41.115,52.582z"/><path fill="#000000" d="M40.053,51.806c0.01-0.017,0.027-0.02,0.041-0.032c0.012-0.014,0.014-0.032,0.029-0.042l0.027-0.016  l0.084-0.196l-2.367,1.359l0.449,0.249l1.822-1.046l-0.008-0.004c-0.021-0.012-0.027-0.036-0.043-0.054  c-0.008-0.01-0.023-0.006-0.031-0.018c-0.004-0.009,0-0.019-0.004-0.027c-0.01-0.024-0.01-0.047-0.012-0.073  c0-0.026-0.002-0.048,0.008-0.072C40.053,51.824,40.047,51.814,40.053,51.806z"/><polygon fill="#000000" points="41.633,52.435 41.703,52.475 41.742,52.185 "/><path fill="#000000" d="M39.287,51.466c-0.031,0.019-0.064,0.027-0.1,0.027h-0.025c-0.035,0-0.07-0.009-0.102-0.028l-0.275-0.164  l-1.838,1.047l0.453,0.267l5.311-3.078l-0.039-0.023L39.287,51.466z"/><path fill="#000000" d="M36.297,49.603c0.01-0.016,0.029-0.018,0.043-0.029s0.018-0.031,0.035-0.04l0.031-0.016l0.023-0.061  l-2.242,1.298l0.439,0.257l1.834-1.063l-0.016-0.009c-0.002-0.001-0.002-0.004-0.004-0.005c-0.004-0.002-0.008-0.001-0.01-0.003  l-0.078-0.052c-0.004-0.003-0.004-0.008-0.008-0.011c-0.023-0.018-0.047-0.038-0.062-0.067c-0.004-0.009,0.002-0.019-0.002-0.028  c-0.008-0.024-0.006-0.045-0.004-0.071s0.002-0.049,0.014-0.073C36.295,49.62,36.291,49.61,36.297,49.603z"/><path fill="#000000" d="M32.922,38.758c-0.027,0-0.057-0.007-0.084-0.02l-0.029,0.07l-0.02,0.287l7.576,4.367l-0.273-0.252V43.21  l-0.734-0.658c-0.025-0.022-0.029-0.056-0.041-0.085c-0.014-0.004-0.029-0.004-0.045-0.012l-0.051-0.027  c-0.004-0.002-0.004-0.007-0.008-0.01c-0.006-0.003-0.012-0.002-0.016-0.005l-1.193-0.861l-1.395-0.865  c-0.016-0.01-0.018-0.028-0.031-0.042c-0.002-0.002-0.004-0.003-0.006-0.005c-0.006-0.008-0.02-0.005-0.025-0.014l-0.098-0.15  c-0.002-0.002,0-0.005-0.002-0.007c-0.014-0.024-0.012-0.052-0.016-0.08c-0.002-0.023-0.014-0.046-0.008-0.069  c0.002-0.003-0.002-0.006,0-0.009l0.26-0.896l-2.406-1.398l-0.188,0.069l-0.24,0.093l-0.578,0.387  c0.023,0.012,0.051,0.013,0.072,0.034c0.029,0.03,0.061,0.09,0.061,0.14c0,0.051-0.031,0.11-0.07,0.141  c-0.031,0.04-0.08,0.06-0.131,0.06c-0.059,0-0.109-0.02-0.15-0.06c-0.029-0.04-0.049-0.09-0.049-0.141  c0-0.002,0.002-0.003,0.002-0.004C32.979,38.746,32.951,38.758,32.922,38.758z"/><path fill="#000000" d="M76.021,42.798L24.006,12.772v10.438l14.965,8.632l2.012-6.766c0.002-0.008,0.012-0.011,0.014-0.019  c0.004-0.008,0-0.018,0.004-0.025c0.01-0.015,0.025-0.017,0.037-0.028s0.012-0.029,0.025-0.038c0.004-0.002,0.008,0,0.012-0.002  c0.008-0.006,0.018-0.005,0.027-0.009c0.021-0.009,0.041-0.009,0.064-0.01c0.02-0.001,0.037-0.008,0.057-0.003  c0.002,0.001,0.004-0.002,0.008-0.001c0.008,0.003,0.01,0.012,0.018,0.015c0.01,0.004,0.018-0.001,0.025,0.004l1.885,1.094  c0.004,0.002,0.004,0.006,0.006,0.008c0.004,0.002,0.006,0,0.01,0.002l1.047,0.742c0.004,0.003,0.002,0.008,0.006,0.011  s0.01,0.001,0.014,0.005l0.914,0.841c0,0,0,0,0,0.001l0.572,0.496l0.77,0.497l0.941,0.494l1.115,0.456l1.564,0.457  c0.018,0.005,0.025,0.022,0.039,0.031c0.016,0.009,0.033,0.006,0.045,0.019l0.035,0.034l0.039,0.027l0.045,0.013  c0.006,0.002,0.008,0.01,0.016,0.013c0.006,0.003,0.014-0.002,0.021,0.002l0.104,0.055c0.027,0.015,0.037,0.043,0.055,0.067  c0.012,0.016,0.033,0.023,0.039,0.043l0.004,0.008l0.186,0.525l0.535,0.464l0.777,0.507l0.934,0.488l1.119,0.458  c0,0,0,0.001,0.002,0.002l1.836,0.762c0,0.001,0,0.002,0.002,0.003s0.004-0.001,0.006,0l1.477,0.689  c0.002,0.001,0.002,0.005,0.006,0.007c0.002,0.001,0.006,0,0.008,0.001l1.908,1.095c0.018,0.01,0.021,0.03,0.035,0.045  c0.014,0.014,0.033,0.02,0.043,0.036c0.002,0.007,0,0.016,0.002,0.022c0.01,0.024,0.008,0.048,0.008,0.074  c-0.002,0.019,0.01,0.035,0.004,0.054l-2.064,6.879l18.641,10.751V42.798z"/><polygon fill="#000000" points="72.945,62.879 73.439,63.162 76.795,56.594 76.305,56.309 "/><polygon fill="#000000" points="58.986,35.675 55.166,48.459 56.617,43.646 56.898,42.704 56.898,42.703 56.951,42.525   56.951,42.524 56.951,42.523 59.006,35.682 "/><path fill="#000000" d="M76.01,54.366c0.004,0.002,0.008,0.001,0.012,0.003v-0.62l-0.645-0.247l-0.252,0.489l0.863,0.353  C75.998,54.348,76,54.36,76.01,54.366z"/><path fill="#000000" d="M75.873,61.673l0.359-0.456l0.287-0.505l0.193-0.559l0.098-0.519c0.002-0.013,0.016-0.019,0.02-0.03  s-0.002-0.023,0.004-0.034c0.006-0.009,0.018-0.01,0.023-0.018c0,0,0,0,0-0.001v-2.205l-2.84,5.56l1.445-0.875L75.873,61.673z"/><polygon fill="#000000" points="23.543,22.95 23.605,22.985 23.605,12.543 23.465,12.463 23.465,22.916 23.525,22.942   23.531,22.949 "/><polygon fill="#000000" points="72.531,62.814 76.021,55.983 76.021,55.625 72.26,62.973 "/><path fill="#000000" d="M45.441,45.981l-0.068-0.21l-0.768-0.226c-0.027-0.009-0.043-0.033-0.062-0.051  c-0.012,0.002-0.021,0.011-0.033,0.011c-0.018,0-0.035-0.002-0.053-0.007l-0.84-0.227c-0.002-0.001-0.004-0.004-0.006-0.005  c-0.006-0.002-0.014-0.001-0.02-0.004l-0.377-0.158l2.717,1.565l-0.277-0.242c-0.006-0.007-0.006-0.017-0.012-0.024  c-0.014-0.016-0.031-0.027-0.041-0.049l-0.129-0.309c-0.004-0.008,0.002-0.017,0-0.024C45.463,46.008,45.447,45.998,45.441,45.981z"/><polygon fill="#000000" points="54.979,49.086 54.85,49.517 54.863,49.479 "/><polygon fill="#000000" points="54.785,49.734 54.775,49.766 54.807,49.663 "/><polygon fill="#000000" points="54.539,50.555 54.541,50.556 54.775,49.766 "/><path fill="#000000" d="M77.969,59.776l0.055-0.01L77.889,59.7c-0.072-0.036-0.1-0.112-0.096-0.189  c-0.029,0.017-0.061,0.027-0.094,0.027c-0.029,0-0.061-0.007-0.088-0.021l-0.254-0.123c-0.049-0.023-0.082-0.065-0.1-0.112v0.228  l0.275,0.161l0.213,0.086L77.969,59.776z"/><path fill="#000000" d="M12.268,36.882c0.004-0.005,0.002-0.012,0.006-0.017l0.354-0.38c0.006-0.008,0.018-0.006,0.027-0.013  c0.006-0.006,0.006-0.017,0.016-0.021l0.379-0.229c0.002,0,0.002-0.001,0.002-0.001l5.834-3.562c-0.008-0.009-0.012-0.021-0.02-0.03  c-0.014-0.019-0.033-0.031-0.039-0.053c-0.002-0.004-0.002-0.008-0.004-0.013c-0.004-0.024,0.006-0.047,0.01-0.072  c0.004-0.021-0.006-0.041,0.004-0.061l0.121-0.242l-0.178-0.109c-0.02-0.013-0.023-0.036-0.039-0.054  c-0.016-0.021-0.037-0.037-0.045-0.063c-0.006-0.023,0.004-0.046,0.006-0.071c0.002-0.024-0.006-0.049,0.006-0.072l0.467-0.921  l-7.645,4.673c0,0,0,0-0.002,0l-0.355,0.215l-0.303,0.324l-0.262,0.425l-0.232,0.609v5.335l0.102,0.382l1.24,0.71l-0.004-0.019  c-0.002-0.009,0.004-0.017,0.004-0.025c-0.002-0.01-0.012-0.016-0.012-0.025v-5.404c0-0.012,0.012-0.02,0.014-0.031  s-0.006-0.021-0.002-0.033l0.225-0.658c0.002-0.009,0.014-0.012,0.018-0.02c0.004-0.009,0-0.019,0.004-0.026l0.289-0.437  C12.256,36.887,12.264,36.887,12.268,36.882z"/><polygon fill="#000000" points="64.686,70.84 12.744,40.862 12.744,41.633 12.748,41.636 64.686,71.604 "/><path fill="#000000" d="M12.484,43.66c-0.014-0.014-0.029-0.024-0.039-0.043c-0.004-0.008,0-0.016-0.002-0.023  c-0.006-0.016-0.01-0.028-0.012-0.046c0-0.009-0.01-0.012-0.01-0.021v-0.049v-1.602l-0.02-0.021  c-0.018-0.018-0.016-0.042-0.025-0.063c-0.012-0.025-0.033-0.047-0.033-0.077v-1.198c0-0.015,0.014-0.023,0.016-0.037  s-0.006-0.026,0-0.04l0.125-0.298l0.098-0.269l0.064-0.27V38.71v-0.125c0-0.02,0.016-0.033,0.021-0.051s-0.002-0.036,0.008-0.053  l0.078-0.129c0.002-0.004,0.008-0.004,0.01-0.007c0.002-0.004,0-0.009,0.004-0.012l0.078-0.103c0.002-0.003,0.008-0.002,0.01-0.005  s0-0.008,0.004-0.011l0.072-0.076c0.008-0.008,0.02-0.006,0.027-0.013c0.008-0.006,0.01-0.018,0.018-0.022l5.586-3.226v-0.015  c0-0.02,0.016-0.032,0.021-0.05c0.004-0.017-0.002-0.034,0.006-0.05c0.002-0.002,0.004-0.002,0.006-0.004  c0.002-0.003,0-0.006,0.002-0.008l0.711-1.062c-0.002-0.01-0.012-0.016-0.012-0.025v-0.561c-0.021-0.018-0.043-0.036-0.057-0.062  l-0.023-0.05c-0.008-0.015,0-0.03-0.004-0.046c0-0.005-0.004-0.009-0.006-0.014l-5.947,3.63c-0.002,0-0.002,0-0.002,0l-0.355,0.215  l-0.326,0.35l-0.266,0.4l-0.205,0.603v5.347l0.09,0.338L12.484,43.66z"/><polygon fill="#000000" points="23.238,24.07 38.633,32.959 38.799,32.41 22.381,22.943 22.131,23.447 23.236,24.068 "/><path fill="#000000" d="M14.826,63.824c0.006-0.006,0.004-0.016,0.012-0.021l0.277-0.234c0.004-0.004,0.012-0.002,0.018-0.006  s0.006-0.012,0.012-0.015l8.127-4.688l-1.355-0.798c-0.006-0.003-0.006-0.01-0.01-0.013c-0.006-0.004-0.014-0.003-0.018-0.007  l-0.15-0.126c-0.008-0.007-0.006-0.018-0.014-0.024c-0.02-0.022-0.041-0.042-0.051-0.072l-0.051-0.177  c-0.004-0.011,0.004-0.02,0.002-0.03c0-0.01-0.01-0.016-0.01-0.026v-0.304l-4.543,2.635l-0.023,2.177c0,0.01-0.008,0.016-0.01,0.024  c-0.004,0.026-0.016,0.045-0.029,0.067c-0.014,0.023-0.023,0.043-0.045,0.059c-0.008,0.006-0.008,0.017-0.016,0.021l-1.605,0.918  c-0.029,0.016-0.059,0.022-0.09,0.023c-0.002,0-0.004,0.003-0.006,0.003s-0.004,0-0.004,0c-0.033,0-0.068-0.009-0.1-0.026  l-1.348-0.764c-0.008-0.005-0.008-0.015-0.016-0.02c-0.023-0.017-0.033-0.037-0.049-0.062c-0.012-0.021-0.023-0.038-0.027-0.062  c-0.002-0.009-0.01-0.015-0.01-0.023l-0.014-0.381l-0.898,0.515l-0.246,0.202l-0.232,0.295l-0.129,0.304l-0.047,0.344v2.779  l2.176,1.266v-2.581c0-0.008,0.008-0.012,0.008-0.02c0.002-0.007-0.004-0.013-0.004-0.021l0.074-0.356  c0.002-0.007,0.01-0.01,0.012-0.017c0.002-0.008-0.004-0.015,0-0.021l0.15-0.357c0.004-0.008,0.014-0.01,0.018-0.017  s0-0.016,0.006-0.022l0.236-0.326C14.811,63.83,14.82,63.831,14.826,63.824z"/><polygon fill="#000000" points="13.742,44.4 14.07,61.526 14.092,62.128 15.037,62.663 14.715,45.15 14.662,44.93 "/><polygon fill="#000000" points="21.91,11.103 21.912,11.104 21.916,11.105 23.365,11.945 23.904,12.253 23.906,12.254 76.322,42.51   76.322,42.511 76.324,42.511 78.133,43.582 78.133,43.156 20.102,9.638 20.102,10.067 21.635,10.955 "/><path fill="#000000" d="M78.283,44.119c-0.018-0.005-0.035-0.005-0.051-0.015l-1.811-1.071v10.551c0,0.005-0.004,0.009-0.006,0.014  c0.002,0.006,0.006,0.009,0.006,0.014v2.304l0.736,0.428c0.01,0.005,0.01,0.016,0.018,0.021c0.02,0.015,0.029,0.032,0.043,0.054  c0.008,0.016,0.023,0.024,0.029,0.042c0.004,0.01-0.002,0.021,0,0.031c0.002,0.009,0.01,0.015,0.01,0.024v2.738  c-0.008-0.041-0.012-0.086,0.008-0.127c0.047-0.098,0.168-0.141,0.268-0.092l0.254,0.123c0.076,0.037,0.104,0.119,0.096,0.201  c0.057-0.034,0.121-0.049,0.184-0.017l0.217,0.107V44.119z"/><path fill="#000000" d="M71.887,62.826l3.9-7.617v-0.001l0.109-0.238v-0.145l-0.012-0.06l-0.074-0.061l-1.039-0.426  c-0.004-0.001-0.004-0.004-0.006-0.005c-0.004-0.002-0.008-0.001-0.01-0.003c-0.002-0.001-0.002-0.003-0.004-0.004  c-0.002,0-0.002,0-0.004-0.001l-17.82-10.264l-1.432,4.746c0.006,0.005,0.012,0.012,0.018,0.019c0.016,0.015,0.037,0.02,0.049,0.04  l0.025,0.049c0,0.003,0,0.005,0,0.008c0.002,0.003,0.006,0.003,0.006,0.006l0.021,0.051c0.01,0.023,0,0.046,0,0.07  c0.002,0.021,0.014,0.041,0.008,0.062l-0.021,0.076c-0.002,0.009-0.01,0.013-0.014,0.021c-0.004,0.006,0.002,0.013-0.002,0.02  l-0.283,0.522l4.285,2.47c0.012,0.007,0.014,0.022,0.023,0.032c0.012,0.009,0.027,0.009,0.035,0.021  c0.008,0.009,0.004,0.02,0.008,0.028c0.006,0.012,0.018,0.02,0.021,0.032c0.004,0.016-0.002,0.031,0,0.048  c0.002,0.023,0.002,0.042-0.006,0.065c-0.002,0.01,0.004,0.021,0,0.03l-0.26,0.559l-0.023,0.053  c-0.008,0.015-0.021,0.022-0.031,0.034c-0.006,0.008-0.002,0.017-0.01,0.023l-0.049,0.049c-0.01,0.01-0.023,0.007-0.035,0.015  c-0.01,0.007-0.014,0.021-0.025,0.026l-0.182,0.081c-0.01,0.005-0.02,0.004-0.031,0.007c-0.004,0.001-0.004,0.005-0.008,0.006  l-1.424,0.302c-0.004,0.001-0.008,0.001-0.012,0.002c-0.002,0-0.002,0.001-0.004,0.001l-0.229,0.03  c-0.008,0.001-0.018,0.002-0.025,0.002c-0.014,0-0.027-0.001-0.039-0.004l-0.15-0.03c-0.002,0-0.002-0.002-0.004-0.002  c-0.004-0.001-0.008-0.001-0.012-0.002c-0.006-0.002-0.008-0.009-0.014-0.011c-0.012-0.004-0.021-0.003-0.031-0.009L32.461,39.367  c-0.008-0.005-0.01-0.015-0.016-0.021c-0.018-0.013-0.027-0.025-0.041-0.043c-0.01-0.016-0.02-0.026-0.025-0.043  c-0.006-0.014-0.006-0.026-0.008-0.041c-0.002-0.009-0.012-0.016-0.012-0.025v-0.076c0-0.005,0.006-0.009,0.006-0.014  s-0.004-0.009-0.004-0.015l0.051-0.358c0.002-0.011,0.012-0.016,0.016-0.025c0.002-0.009-0.004-0.017,0-0.025l0.107-0.251  c0.01-0.021,0.031-0.027,0.047-0.044c0.016-0.019,0.023-0.043,0.047-0.055l0.049-0.025c0.006-0.003,0.01,0.001,0.016-0.001  c0.021-0.01,0.043-0.005,0.066-0.007c0.029-0.001,0.057-0.007,0.084,0.005c0.004,0.002,0.01-0.001,0.014,0.001l0.049,0.023  l0.74-0.494c0.008-0.005,0.016-0.001,0.023-0.005c0.006-0.004,0.008-0.013,0.016-0.016l0.26-0.101c0,0,0,0,0.002,0v-0.001  l0.279-0.104c0.004-0.001,0.008,0.001,0.01,0c0.027-0.008,0.051,0.001,0.078,0.003c0.025,0.003,0.049-0.001,0.07,0.01  c0.004,0.002,0.008,0,0.012,0.002l2.404,1.398l1.713-5.669l-15.234-8.796l-0.076,0.232c-0.002,0.006-0.008,0.009-0.01,0.015  c-0.002,0.004,0,0.009-0.002,0.013l-0.23,0.459v0.001v0.001l-3.566,6.93c0,0.001-0.002,0.001-0.002,0.001l-0.115,0.233l36.711,21.21  L71.887,62.826z"/><polygon fill="#000000" points="21.992,26.245 21.713,26.804 21.713,26.805 20.162,29.838 22.518,25.264 22.504,25.256 "/><polygon fill="#000000" points="75.016,53.329 57.211,43.058 57.045,43.61 74.766,53.816 "/><path fill="#000000" d="M69.109,64.312l0.359,0.199l0.133-0.072l-0.949-0.546l0.021,0.17l0.338,0.196  c0.01,0.005,0.01,0.016,0.018,0.021c0.008,0.007,0.02,0.009,0.027,0.017c0.012,0.003,0.02,0.007,0.031,0.013  C69.096,64.312,69.104,64.308,69.109,64.312z"/><path fill="#000000" d="M63.848,67.87l0.078-0.126c0.012-0.018,0.033-0.021,0.047-0.034s0.02-0.031,0.037-0.04l0.088-0.043  l4.967-2.884l-0.055-0.03l-5.328,3.064l0.166,0.098C63.848,67.873,63.848,67.871,63.848,67.87z"/><polygon fill="#000000" points="16.365,41.424 63.746,68.805 63.746,68.601 16.365,41.247 "/><path fill="#000000" d="M55.111,50.043l-0.246,0.825c0,0.001-0.002,0.002-0.002,0.003s0,0.002,0,0.003  c-0.01,0.026-0.029,0.044-0.047,0.063c-0.01,0.011-0.014,0.026-0.025,0.035c-0.035,0.024-0.074,0.038-0.117,0.038  c-0.02,0-0.039-0.003-0.059-0.009v-0.001C54.613,51,54.611,51,54.609,51l-0.381-0.128c-0.004-0.001-0.004-0.006-0.008-0.008  c-0.008-0.003-0.016-0.002-0.023-0.006l-1.523-0.834l-1.705-0.817c0-0.001,0-0.002-0.002-0.003c0,0,0,0-0.002,0l-0.102-0.052  c-0.045-0.023-0.074-0.063-0.092-0.107c-0.029,0.017-0.062,0.029-0.096,0.029c-0.025,0-0.051-0.005-0.076-0.015l-1.449-0.589  c-0.002,0-0.002-0.002-0.002-0.002c-0.002-0.001-0.004,0-0.004-0.001l-0.402-0.177l8.344,4.809l0.119-0.184  c0.004-0.007,0.014-0.006,0.018-0.012c0.006-0.006,0.004-0.015,0.008-0.02l0.178-0.18c0.014-0.014,0.035-0.013,0.051-0.021  c0.029-0.017,0.057-0.037,0.09-0.038h0.002h0.102c0.018,0,0.031,0.016,0.049,0.021c0.016,0.004,0.033-0.003,0.049,0.006l0.15,0.084  l1.09-0.354l0.121-0.054L55.111,50.043z"/><path fill="#000000" d="M13.203,38.435l-0.049,0.053l-0.064,0.082l-0.043,0.071v0.069v0.801l2.867,1.652v-0.568  c0-0.007,0.006-0.01,0.008-0.017c0-0.006-0.006-0.011-0.004-0.017l0.021-0.127c0-0.009,0.01-0.013,0.012-0.021s-0.002-0.015,0-0.022  l0.053-0.126c0.004-0.009,0.014-0.011,0.018-0.019s0-0.018,0.006-0.024l0.078-0.104c0.006-0.008,0.016-0.007,0.021-0.014  c0.008-0.008,0.008-0.019,0.016-0.025l0.102-0.079c0.004-0.003,0.01-0.001,0.014-0.004s0.004-0.009,0.008-0.011l5.354-3.109  l-2.857-1.653L13.203,38.435z"/><polygon fill="#000000" points="58.91,52.887 59.039,52.83 59.047,52.811 59.051,52.804 58.576,52.958 "/><path fill="#000000" d="M17.127,40.9l1.953-1.123c0.002-0.013-0.006-0.023-0.002-0.036c0,0,0,0,0-0.001  c0.012-0.036,0.045-0.062,0.076-0.087c0.01-0.007,0.014-0.021,0.025-0.027v-0.001l0.031-0.015l0.201-0.517  c0.002-0.005,0.008-0.006,0.01-0.01s0-0.009,0.002-0.013c0.008-0.015,0.025-0.018,0.035-0.029l-2.768,1.601L17.127,40.9z"/><polygon fill="#000000" points="21.314,40.37 21.311,40.368 21.201,40.643 21.262,40.68 "/><path fill="#000000" d="M21.76,41.411c-0.002-0.009,0-0.019,0-0.027c-0.004-0.026-0.01-0.049-0.004-0.074  c0.002-0.007-0.004-0.014,0-0.021c0.006-0.021,0.027-0.027,0.039-0.043s0.014-0.037,0.029-0.049l0.059-0.042l0.072-0.171  l-0.422,0.244c-0.031,0.019-0.066,0.027-0.1,0.027H21.41c-0.043,0-0.088-0.015-0.123-0.044l-0.029-0.022l-1.816,1.059l0.436,0.255  L21.76,41.411z"/><path fill="#000000" d="M22.123,22.572c0.002-0.003,0-0.005,0.002-0.007c0.01-0.018,0.031-0.021,0.045-0.035  c0.02-0.018,0.031-0.039,0.057-0.049c0.006-0.002,0.01-0.005,0.014-0.006c0.021-0.007,0.043,0.004,0.064,0.005  c0.023,0,0.043-0.01,0.066-0.002l0.693,0.273V12.233l-1.049-0.608v11.158l0.096-0.191l0.008-0.016  C22.119,22.574,22.123,22.574,22.123,22.572z"/><polygon fill="#000000" points="22.387,40.995 22.268,41.271 22.35,41.318 22.393,40.999 "/><polygon fill="#000000" points="57.531,53.15 57.51,53.183 57.521,53.181 57.752,53.132 57.621,53.059 "/><path fill="#000000" d="M22.699,24.906l0.127-0.255l0.092-0.275l0.002-0.025l-0.904-0.509v1.487l0.229-0.442  c0-0.001,0.002-0.002,0.004-0.003c0-0.001-0.002-0.003,0-0.004c0.012-0.022,0.037-0.027,0.055-0.042  c0.021-0.018,0.037-0.041,0.062-0.049c0.027-0.008,0.053,0.003,0.082,0.007c0.021,0.003,0.045-0.006,0.066,0.005  c0,0.001,0.002,0.003,0.002,0.004c0.002,0,0.004-0.001,0.004,0L22.699,24.906z"/><polygon fill="#000000" points="16.65,61.975 16.674,59.799 16.674,59.798 16.674,59.797 16.924,46.239 15.115,45.191   15.438,62.668 "/></svg>
