<svg xmlns="http://www.w3.org/2000/svg" xmlns:xlink="http://www.w3.org/1999/xlink" version="1.1" x="0px" y="0px" viewBox="0 0 100 125" style="enable-background:new 0 0 100 100;" xml:space="preserve"><g><path d="M36.6,82.9c2,2,4.7,3,7.4,3c2.9,0,5.8-1.1,8-3.4l31.1-31.1c1.7-1.7,2.7-4,2.8-6.4l0-23.5c0-2-0.8-3.9-2.2-5.3   c-1.4-1.4-3.3-2.2-5.3-2.2c0,0,0,0,0,0l-23.5,0c-2.4,0.1-4.7,1-6.4,2.8L17.4,48c-4.3,4.3-4.5,11.3-0.3,15.4L36.6,82.9z M19.5,50.1   l31.1-31.1c1.2-1.2,2.8-1.9,4.3-1.9l23.5,0c0,0,0,0,0,0c1.2,0,2.3,0.5,3.2,1.3c0.9,0.8,1.3,2,1.3,3.2L83,45c0,1.6-0.7,3.2-1.9,4.4   L49.9,80.5c-3.2,3.2-8.2,3.3-11.2,0.3L19.2,61.3C16.2,58.3,16.3,53.3,19.5,50.1z"/><path d="M65.5,44c2.4,0,4.9-0.9,6.7-2.8c3.7-3.7,3.7-9.7,0-13.4c-3.7-3.7-9.7-3.7-13.4,0c-3.7,3.7-3.7,9.7,0,13.4   C60.6,43.1,63.1,44,65.5,44z M60.9,29.9c1.3-1.3,2.9-1.9,4.6-1.9c1.7,0,3.3,0.6,4.6,1.9c2.5,2.5,2.5,6.7,0,9.2   c-2.5,2.5-6.7,2.5-9.2,0C58.4,36.6,58.4,32.4,60.9,29.9z"/></g><text x="0" y="115" fill="#000000" font-size="5px" font-weight="bold" font-family="'Helvetica Neue', Helvetica, Arial-Unicode, Arial, Sans-serif">Created by Genius Icons</text><text x="0" y="120" fill="#000000" font-size="5px" font-weight="bold" font-family="'Helvetica Neue', Helvetica, Arial-Unicode, Arial, Sans-serif">from the Noun Project</text></svg>