<svg xmlns="http://www.w3.org/2000/svg" xmlns:xlink="http://www.w3.org/1999/xlink" version="1.1" x="0px" y="0px" viewBox="0 0 32 40" enable-background="new 0 0 32 32" xml:space="preserve"><path d="M26.875,6.141h-1.596V5.49c0-0.994-0.809-1.803-1.803-1.803s-1.803,0.809-1.803,1.803v0.65H10.325V5.49  c0-0.994-0.809-1.803-1.802-1.803c-0.994,0-1.803,0.809-1.803,1.803v0.65H5.125c-1.188,0-2.154,0.967-2.154,2.154v17.863  c0,1.189,0.967,2.154,2.154,2.154h21.75c1.188,0,2.154-0.965,2.154-2.154V8.295C29.029,7.107,28.063,6.141,26.875,6.141z   M23.174,5.49c0-0.166,0.137-0.303,0.303-0.303c0.168,0,0.303,0.137,0.303,0.303v2.809c0,0.166-0.135,0.303-0.303,0.303  c-0.166,0-0.303-0.137-0.303-0.303V5.49z M8.221,5.49c0-0.166,0.135-0.303,0.303-0.303c0.166,0,0.302,0.137,0.302,0.303v2.809  c0,0.166-0.136,0.303-0.302,0.303c-0.168,0-0.303-0.137-0.303-0.303V5.49z M5.125,7.641h1.596v0.658  c0,0.994,0.809,1.803,1.803,1.803c0.993,0,1.802-0.809,1.802-1.803V7.641h11.349v0.658c0,0.994,0.809,1.803,1.803,1.803  s1.803-0.809,1.803-1.803V7.641h1.596c0.36,0,0.654,0.293,0.654,0.654v3.143H4.471V8.295C4.471,7.934,4.764,7.641,5.125,7.641z   M26.875,26.813H5.125c-0.361,0-0.654-0.293-0.654-0.654V12.938h23.059v13.221C27.529,26.52,27.235,26.813,26.875,26.813z"/><polygon points="19.22,15.689 16,18.91 12.78,15.689 11.72,16.75 14.939,19.971 11.72,23.189 12.78,24.25 16,21.031 19.22,24.25   20.28,23.189 17.061,19.971 20.28,16.75 "/></svg>
