<svg xmlns="http://www.w3.org/2000/svg" xmlns:xlink="http://www.w3.org/1999/xlink" version="1.1" x="0px" y="0px" viewBox="0 0 100 125" enable-background="new 0 0 100 100" xml:space="preserve"><g><path d="M43.009,25.292c4.695,0,8.517-3.817,8.517-8.517c0-4.717-3.822-8.533-8.517-8.533c-4.716,0-8.539,3.816-8.539,8.533   C34.471,21.475,38.293,25.292,43.009,25.292z"/><path d="M71.703,22.256v7.736l-17.502,0.027c-2.977,0-5.383,2.407-5.383,5.384v2.056v0.028h-12.97   c0.162-1.998,0.246-3.64,0.2-4.637c0.667-9.653-3.61-11.629-3.61-11.629c-16.289-8.281-26.44,30.527-17.966,41.715L1.084,62.898   v32.175h5.145V75.324h27.935v19.749h5.144v-28.46h9.303l9.746,28.504h40.702V22.256H71.703z M71.703,88.042H66.28   c0,0-9.388-27.296-10.536-29.919c-0.817-2.724-3.248-4.744-6.237-4.744H33.994c0.267-1.921,0.5-3.785,0.732-5.643H23.557V34.014   h2.089v11.797l46.057-0.006V88.042z"/></g></svg>
