<svg xmlns="http://www.w3.org/2000/svg" xmlns:xlink="http://www.w3.org/1999/xlink" version="1.1" x="0px" y="0px" viewBox="0 0 48 60" style="enable-background:new 0 0 48 48;" xml:space="preserve"><style type="text/css">
	.st0{fill:none;stroke:#000000;stroke-width:2;stroke-linecap:round;stroke-miterlimit:10;}
	.st1{fill:none;stroke:#000000;stroke-width:2;stroke-linecap:round;stroke-linejoin:round;stroke-miterlimit:10;}
	.st2{fill:none;stroke:#000000;stroke-width:2;stroke-miterlimit:10;}
</style><path d="M34.6,15.1c0.3-0.4,0.6-0.9,0.7-1.5h6.2c0.6,0,1-0.4,1-1s-0.4-1-1-1h-6.2c-0.2-0.9-0.8-1.8-1.6-2.4  c-1.9-1.4-4.5-0.9-5.8,0.9c-0.3,0.4-0.5,0.9-0.7,1.5H6.5c-0.6,0-1,0.4-1,1s0.4,1,1,1h20.7c0.2,0.9,0.8,1.8,1.6,2.4  C30.6,17.4,33.3,17,34.6,15.1z M30,14.4c-0.5-0.3-0.8-0.8-0.9-1.4c-0.1-0.6,0-1.1,0.4-1.6c0.7-1,2.1-1.2,3-0.5  c0.5,0.3,0.8,0.8,0.9,1.4c0,0.1,0,0.2,0,0.3c0,0.5-0.1,0.9-0.4,1.3C32.3,14.9,30.9,15.1,30,14.4z M19.8,26.5  c0.3-0.4,0.6-0.9,0.7-1.5h21c0.6,0,1-0.4,1-1s-0.4-1-1-1h-21c-0.2-0.9-0.8-1.8-1.6-2.4c-1.9-1.4-4.5-0.9-5.8,0.9  c-0.3,0.4-0.5,0.9-0.7,1.5H6.5c-0.6,0-1,0.4-1,1s0.4,1,1,1h5.9c0.2,0.9,0.8,1.8,1.6,2.4C15.8,28.7,18.4,28.3,19.8,26.5z M15.2,25.7  c-0.5-0.3-0.8-0.8-0.9-1.4c-0.1-0.6,0-1.1,0.4-1.6c0.7-1,2.1-1.2,3-0.5c0.5,0.3,0.8,0.8,0.9,1.4c0,0.1,0,0.2,0,0.3c0,0,0,0,0,0  s0,0,0,0c0,0.5-0.1,0.9-0.4,1.3C17.5,26.2,16.1,26.4,15.2,25.7z M30.7,37.8c0.3-0.4,0.6-0.9,0.7-1.5h10.1c0.6,0,1-0.4,1-1  s-0.4-1-1-1H31.4c-0.2-0.9-0.8-1.8-1.6-2.4c-0.9-0.7-2-0.9-3.1-0.8c-1.1,0.2-2.1,0.8-2.7,1.7c-0.3,0.5-0.5,0.9-0.7,1.5H6.5  c-0.6,0-1,0.4-1,1s0.4,1,1,1h16.9c0.2,0.9,0.8,1.8,1.6,2.4C26.8,40,29.4,39.6,30.7,37.8z M26.1,37.1c-0.5-0.4-0.8-0.9-0.9-1.5  c0-0.1,0-0.2,0-0.2c0-0.1,0-0.2,0-0.2c0-0.4,0.2-0.7,0.4-1c0.3-0.5,0.8-0.8,1.4-0.9s1.1,0.1,1.6,0.4c0.5,0.3,0.8,0.8,0.9,1.4  c0,0.1,0,0.2,0,0.3c0,0,0,0,0,0c0,0,0,0,0,0c0,0.5-0.1,0.9-0.4,1.3C28.4,37.6,27.1,37.8,26.1,37.1z"/><text x="0" y="63" fill="#000000" font-size="5px" font-weight="bold" font-family="'Helvetica Neue', Helvetica, Arial-Unicode, Arial, Sans-serif">Created by Jessigue</text><text x="0" y="68" fill="#000000" font-size="5px" font-weight="bold" font-family="'Helvetica Neue', Helvetica, Arial-Unicode, Arial, Sans-serif">from the Noun Project</text></svg>