<svg xmlns="http://www.w3.org/2000/svg" viewBox="0 0 18 22.5" x="0px" y="0px"><defs><style>.cls-1{fill:none;}.cls-2{fill:#010101;}</style></defs><title>Short-on-time</title><g data-name="Layer 2"><g data-name="Layer 1"><path class="cls-1" d="M9,2a7,7,0,1,0,7,7A7,7,0,0,0,9,2ZM4,10A1,1,0,1,1,5,9,1,1,0,0,1,4,10Zm2,4a1,1,0,1,1,1-1A1,1,0,0,1,6,14ZM6,6A1,1,0,1,1,7,5,1,1,0,0,1,6,6Zm6,3a3,3,0,0,0-.3-1.29l-2,2A1,1,0,1,1,8.29,8.29l2-2A3,3,0,0,0,9,6V3a6,6,0,0,1,6,6Z"/><path class="cls-2" d="M9,0A9,9,0,0,0,3.28,2.05,1,1,0,0,0,3.12.88a1,1,0,0,0-1.41,0L.29,2.29A1,1,0,0,0,1.71,3.71l.1-.1A9,9,0,1,0,9,0ZM9,16a7,7,0,1,1,7-7A7,7,0,0,1,9,16Z"/><path class="cls-2" d="M9,3V6a3,3,0,0,1,1.29.3l-2,2A1,1,0,1,0,9.71,9.71l2-2A3,3,0,0,1,12,9h3A6,6,0,0,0,9,3Z"/><circle class="cls-2" cx="4" cy="9" r="1"/><circle class="cls-2" cx="6" cy="13" r="1"/><circle class="cls-2" cx="6" cy="5" r="1"/></g></g><text x="0" y="33" fill="#000000" font-size="5px" font-weight="bold" font-family="'Helvetica Neue', Helvetica, Arial-Unicode, Arial, Sans-serif">Created by Roy Charles</text><text x="0" y="38" fill="#000000" font-size="5px" font-weight="bold" font-family="'Helvetica Neue', Helvetica, Arial-Unicode, Arial, Sans-serif">from the Noun Project</text></svg>