<svg xmlns="http://www.w3.org/2000/svg" viewBox="0 0 32 40" x="0px" y="0px"><title>language</title><g><path d="M29.58,6.62l0,0a11,11,0,0,0-19.11,0l0,.06A10.89,10.89,0,0,0,9.22,9.8,11.12,11.12,0,0,0,9,12a10.92,10.92,0,0,0,1.42,5.38l0,0A11,11,0,0,0,29.58,6.62ZM28.06,16H25.6A19.26,19.26,0,0,0,26,13h3A9,9,0,0,1,28.06,16ZM11.18,10.2A8.91,8.91,0,0,1,11.94,8H14.4A19.26,19.26,0,0,0,14,11h-3C11.09,10.73,11.13,10.46,11.18,10.2ZM21,6V3.33A5.81,5.81,0,0,1,22.92,6Zm2.56,2A17,17,0,0,1,24,11H21V8ZM19,3.33V6H17.08A5.81,5.81,0,0,1,19,3.33ZM19,8v3H16a17,17,0,0,1,.42-3Zm-7.94,5h3a19.26,19.26,0,0,0,.37,3H11.95A8.92,8.92,0,0,1,11.06,13Zm5,0h3v3H16.44A17,17,0,0,1,16,13Zm3,5v2.67A5.81,5.81,0,0,1,17.08,18Zm2,2.67V18h1.92A5.81,5.81,0,0,1,21,20.67ZM21,16V13h3a17,17,0,0,1-.42,3Zm5-5a19.26,19.26,0,0,0-.37-3h2.45a8.92,8.92,0,0,1,.89,3Zm.72-5H25.05a11.94,11.94,0,0,0-.88-2A9,9,0,0,1,26.69,6ZM15.83,4a12,12,0,0,0-.88,2H13.31A9.09,9.09,0,0,1,15.83,4ZM13.31,18h1.64a11.94,11.94,0,0,0,.88,2A9,9,0,0,1,13.31,18Zm10.85,2a11.93,11.93,0,0,0,.89-2h1.66A9,9,0,0,1,24.16,20Z"/><path d="M23.6,23.45A12,12,0,0,1,8,12a12.18,12.18,0,0,1,.24-2.4c0-.2.1-.4.15-.6H4a3,3,0,0,0-3,3V24a3,3,0,0,0,2.72,3L3,29.76A1,1,0,0,0,4.5,30.87L11.27,27H21a3,3,0,0,0,3-3v-.7Z"/></g><text x="0" y="47" fill="#000000" font-size="5px" font-weight="bold" font-family="'Helvetica Neue', Helvetica, Arial-Unicode, Arial, Sans-serif">Created by Yoyon Pujiyono</text><text x="0" y="52" fill="#000000" font-size="5px" font-weight="bold" font-family="'Helvetica Neue', Helvetica, Arial-Unicode, Arial, Sans-serif">from the Noun Project</text></svg>