<svg xmlns="http://www.w3.org/2000/svg" xmlns:xlink="http://www.w3.org/1999/xlink" xml:space="preserve" version="1.1" style="shape-rendering:geometricPrecision;text-rendering:geometricPrecision;image-rendering:optimizeQuality;" viewBox="0 0 258 336.25" x="0px" y="0px" fill-rule="evenodd" clip-rule="evenodd"><defs><style type="text/css">
   
    .fil0 {fill:black}
   
  </style></defs><g><path class="fil0" d="M230 132l0 -54 -133 38 0 105c0,27 -22,48 -49,48 -26,0 -48,-21 -48,-48 0,-27 22,-48 48,-48 8,0 15,2 21,5l0 -118c0,-6 4,-12 10,-13l161 -46c9,-3 18,4 18,13l0 161c0,27 -22,48 -48,48 -27,0 -49,-21 -49,-48 0,-27 22,-48 49,-48 7,0 14,1 20,5zm-182 110c12,0 21,-9 21,-21 0,-11 -9,-21 -21,-21 -11,0 -20,10 -20,21 0,12 9,21 20,21zm49 -154l133 -38 0 -18 -133 38 0 18zm113 108c11,0 20,-9 20,-21 0,-11 -9,-21 -20,-21 -12,0 -21,10 -21,21 0,12 9,21 21,21z"/></g><text x="0" y="284" fill="#000000" font-size="5px" font-weight="bold" font-family="'Helvetica Neue', Helvetica, Arial-Unicode, Arial, Sans-serif">Created by Humantech</text><text x="0" y="289" fill="#000000" font-size="5px" font-weight="bold" font-family="'Helvetica Neue', Helvetica, Arial-Unicode, Arial, Sans-serif">from the Noun Project</text></svg>