<svg xmlns:dc="http://purl.org/dc/elements/1.1/" xmlns:cc="http://creativecommons.org/ns#" xmlns:rdf="http://www.w3.org/1999/02/22-rdf-syntax-ns#" xmlns:svg="http://www.w3.org/2000/svg" xmlns="http://www.w3.org/2000/svg" xmlns:sodipodi="http://sodipodi.sourceforge.net/DTD/sodipodi-0.dtd" xmlns:inkscape="http://www.inkscape.org/namespaces/inkscape" viewBox="0 0 8.4666667 10.583333374999999" version="1.1" x="0px" y="0px"><g transform="translate(0,-288.53333)"><path style="color:#000000;font-style:normal;font-variant:normal;font-weight:normal;font-stretch:normal;font-size:medium;line-height:normal;font-family:sans-serif;font-variant-ligatures:normal;font-variant-position:normal;font-variant-caps:normal;font-variant-numeric:normal;font-variant-alternates:normal;font-feature-settings:normal;text-indent:0;text-align:start;text-decoration:none;text-decoration-line:none;text-decoration-style:solid;text-decoration-color:#000000;letter-spacing:normal;word-spacing:normal;text-transform:none;writing-mode:lr-tb;direction:ltr;text-orientation:mixed;dominant-baseline:auto;baseline-shift:baseline;text-anchor:start;white-space:normal;shape-padding:0;clip-rule:nonzero;display:inline;overflow:visible;visibility:visible;opacity:1;isolation:auto;mix-blend-mode:normal;color-interpolation:sRGB;color-interpolation-filters:linearRGB;solid-color:#000000;solid-opacity:1;vector-effect:none;fill:#000000;fill-opacity:1;fill-rule:nonzero;stroke:none;stroke-width:0.5291667;stroke-linecap:butt;stroke-linejoin:miter;stroke-miterlimit:4;stroke-dasharray:none;stroke-dashoffset:0;stroke-opacity:1;color-rendering:auto;image-rendering:auto;shape-rendering:auto;text-rendering:auto;enable-background:accumulate" d="m 4.2333328,289.0625 c -2.0426203,0 -3.70416669,1.66154 -3.70416669,3.70416 0,2.04262 1.66154639,3.70417 3.70416669,3.70417 2.0426204,0 3.7041667,-1.66155 3.7041667,-3.70417 0,-2.04262 -1.6615463,-3.70416 -3.7041667,-3.70416 z m 0,1.32291 c 0.7274931,0 1.3229167,0.59543 1.3229167,1.32292 0,0.72749 -0.5954236,1.32292 -1.3229167,1.32292 -0.727493,0 -1.3229166,-0.59543 -1.3229166,-1.32292 0,-0.72749 0.5954236,-1.32292 1.3229166,-1.32292 z m -1.0583333,3.175 h 2.1166667 c 0.7223866,0 1.3123042,0.58516 1.3218821,1.30535 -0.5812948,0.65895 -1.4301126,1.0759 -2.3802155,1.0759 -0.9501055,0 -1.7989206,-0.41695 -2.3802181,-1.0759 0.00958,-0.72019 0.5994956,-1.30535 1.3218848,-1.30535 z"/></g><text x="0" y="23.466666699999998" fill="#000000" font-size="5px" font-weight="bold" font-family="'Helvetica Neue', Helvetica, Arial-Unicode, Arial, Sans-serif">Created by Nawicon</text><text x="0" y="28.466666699999998" fill="#000000" font-size="5px" font-weight="bold" font-family="'Helvetica Neue', Helvetica, Arial-Unicode, Arial, Sans-serif">from the Noun Project</text></svg>