<svg xmlns="http://www.w3.org/2000/svg" xmlns:xlink="http://www.w3.org/1999/xlink" version="1.1" x="0px" y="0px" viewBox="0 0 128.5 215.14" style="enable-background:new 0 0 128.5 172.112;" xml:space="preserve"><g><path d="M33.012,167.352c-0.341,0.037-0.665,0.075-0.996,0.112c2.289,2.955,5.819,4.647,9.485,4.648   c1.642,0,3.31-0.339,4.905-1.055c4.102-1.839,8.152-3.205,12.121-4.217c-3.131-0.335-6.345-0.52-9.676-0.523   C42.931,166.317,37.522,166.84,33.012,167.352z"/><ellipse transform="matrix(0.2268 -0.9739 0.9739 0.2268 27.7661 79.9741)" cx="64.251" cy="22.5" rx="22.495" ry="22.495"/><path d="M2.4,134.822c1.288,1.262,2.896,1.992,4.556,2.21c0.347,0.045,0.695,0.077,1.044,0.077c0.599,0,1.195-0.075,1.782-0.208   c1.445-0.329,2.817-1.055,3.932-2.192c1.448-1.48,2.822-2.964,4.163-4.448c1.591-1.761,3.12-3.522,4.566-5.281   c2.725-3.312,5.196-6.609,7.441-9.864c2.778-4.027,5.198-7.981,7.32-11.815v13.894v2.216c-2.032,0.979-4.148,2.032-6.28,3.143   c-2.392,1.254-4.797,2.575-7.155,3.967c-2.64,3.191-5.504,6.395-8.628,9.586c-1.896,1.936-4.431,3.001-7.143,3.001   c-0.053,0-0.105-0.007-0.159-0.008c-0.118,0.148-0.239,0.29-0.356,0.441c-1.051,1.37-2.053,2.919-2.876,4.828   c-0.812,1.899-1.445,4.221-1.447,6.857c-0.028,2.799,0.818,5.87,2.298,8.29c1.135,1.919,2.746,3.452,4.261,4.433   c2.309,1.489,4.277,1.979,5.858,2.28c1.6,0.281,2.913,0.332,4.159,0.337c3.686-0.035,7.116-0.509,11.09-0.976   c0.64-0.075,1.29-0.15,1.962-0.224c4.773-0.543,10.183-1.048,16.066-1.048c4.871,0.004,10.036,0.351,15.398,1.293   c5.762,1.013,11.748,2.715,17.844,5.447c1.595,0.716,3.264,1.055,4.905,1.055c4.383,0.001,8.571-2.419,10.676-6.523   c0.097-0.187,0.193-0.373,0.28-0.567c2.712-6.048,0.01-13.148-6.035-15.861c-9.596-4.308-18.98-6.662-27.675-7.836   c-5.341-0.721-10.422-0.999-15.129-1.007c0.961-0.454,1.898-0.888,2.802-1.298c2.965-1.354,5.568-2.472,7.409-3.24   c0.194-0.082,0.376-0.157,0.554-0.231h4.914h3.825c2.365,0.982,6.322,2.677,10.758,4.769c-2.464,0.004-5.034,0.086-7.688,0.262   c7.337,1.506,14.372,3.759,21.049,6.757c7.04,3.161,10.199,11.459,7.041,18.502c3.113,0.373,5.964,0.698,8.983,0.726   c1.664-0.021,3.435-0.065,5.866-0.732c1.21-0.349,2.621-0.885,4.148-1.883c1.514-0.981,3.127-2.513,4.264-4.432   c1.473-2.429,2.323-5.475,2.297-8.291c-0.003-2.635-0.635-4.958-1.448-6.855c-0.929-2.112-2.036-3.798-3.225-5.271   c-0.056,0.001-0.11,0.008-0.166,0.008c-2.712,0-5.247-1.064-7.143-3.001c-3.125-3.192-5.99-6.397-8.631-9.589   c-4.443-2.617-9.128-5.036-13.432-7.109v-16.105c2.123,3.833,4.542,7.786,7.319,11.813c3.432,4.976,7.408,10.052,11.989,15.124   c1.347,1.491,2.726,2.982,4.182,4.469c1.112,1.135,2.482,1.86,3.924,2.19c0.589,0.134,1.189,0.21,1.79,0.21   c2.021,0,4.043-0.761,5.6-2.287c3.155-3.093,3.205-8.158,0.113-11.313c-5.564-5.668-10.21-11.396-14.096-16.979   c-17.18-24.681-19.4-46.477-19.477-47.349l0,0c-0.327-4.095-3.686-7.219-7.697-7.352c-0.447-0.08-0.905-0.129-1.376-0.129H44.933   c-0.47,0-0.927,0.049-1.374,0.129c-4.013,0.131-7.373,3.256-7.7,7.352l0,0c-0.076,0.872-2.297,22.669-19.477,47.349   c-3.886,5.582-8.53,11.31-14.096,16.979C-0.805,126.663-0.756,131.729,2.4,134.822z"/></g></svg>
