<svg xmlns="http://www.w3.org/2000/svg" xmlns:xlink="http://www.w3.org/1999/xlink" version="1.1" x="0px" y="0px" viewBox="0 0 96.1 118.75" enable-background="new 0 0 96.1 95" xml:space="preserve"><g><path d="M85.4,84h-5.7l0-78v0c0-1.7-1.4-3.1-3.1-3.1H49.4l-7.5-2.2h0c-0.2-0.1-0.4-0.1-0.5-0.1c-0.4,0-0.8,0.1-1.2,0.4l0,0   c-0.5,0.4-0.8,0.9-0.8,1.5v0.4h-20c-1.4,0-2.5,1.1-2.5,2.5v0V84h-6.1c-1.1,0-1.9,0.9-1.9,1.9c0,1.1,0.9,1.9,1.9,1.9h28.7v4.5   c0,0.6,0.3,1.1,0.7,1.5l0,0c0.3,0.3,0.8,0.5,1.2,0.5c0.1,0,0.2,0,0.3,0l29.1-5c0.8-0.1,1.3-0.7,1.5-1.4h13.1c1.1,0,1.9-0.9,1.9-1.9   C87.3,84.9,86.5,84,85.4,84z M75.8,6.8V84h-3.5V11.2c0-0.9-0.6-1.6-1.4-1.9l0,0l-8.5-2.5H75.8z M43.2,5.1l25.3,7.5l0,73.2   l-25.3,4.4l0-4.2l0,0L43.2,5.1z M26.1,9c-1.4,0-2.5,1.1-2.5,2.5V84h-2.9V6.8h18.7l0,2.2H26.1z M27.4,12.8h11.9V84H27.4V12.8z"/><path d="M49,51.1L49,51.1c2.6,0,3.6-2.3,3.6-3.5c1.4,0,3,0,3,0c0.5,0,1-0.2,1.4-0.6c0.4-0.4,0.6-0.8,0.6-1.4v-0.3   c0-0.5-0.2-1-0.6-1.4c-0.4-0.4-0.9-0.6-1.4-0.6c0,0-3.2,0-5.1,0h-1.4c-1,0-2,0.4-2.7,1c-0.7,0.6-1.2,1.6-1.2,2.7l0,0l0,0.1l0,0   C45.2,49.4,46.9,51.1,49,51.1z M52.8,47.9L52.8,47.9L52.8,47.9L52.8,47.9z"/><polygon points="57,44 57,44 57,44  "/><polygon points="46.4,44.4 46.4,44.4 46.4,44.4  "/></g><text x="0" y="110" fill="#000000" font-size="5px" font-weight="bold" font-family="'Helvetica Neue', Helvetica, Arial-Unicode, Arial, Sans-serif">Created by Savannah Vize</text><text x="0" y="115" fill="#000000" font-size="5px" font-weight="bold" font-family="'Helvetica Neue', Helvetica, Arial-Unicode, Arial, Sans-serif">from the Noun Project</text></svg>