<svg xmlns="http://www.w3.org/2000/svg" xmlns:xlink="http://www.w3.org/1999/xlink" version="1.1" x="0px" y="0px" viewBox="0 0 1024 1280" style="enable-background:new 0 0 1024 1024;" xml:space="preserve"><path d="M870.1,214c0-0.5,0-1,0-1.5c0-8.6-6.9-14.3-15-15c-51-4.2-101.8-13.5-151.9-27.9  c-50.8-14.5-98.6-33.5-145.2-57.7c-12.7-6.6-25-14.1-37.8-20.5c-9.1-4.6-15.7-0.1-23.4,4.1c-4.8,2.7-9.7,5.3-14.5,8  c-46.1,25.2-93,45.2-143.1,60.8c-27.9,8.7-56.3,15.9-85,21.5c-29,5.7-55.6,9.4-84.9,11.7c-8.1,0.7-15,6.3-15,15v113.9  c0,40.5-1.3,81.3,0.5,121.8c3.8,84.5,28.4,167.7,71.4,240.6c41.9,71,100.7,131.3,170.3,175.4c34.9,22.1,69.9,44.2,104.8,66.2  c1.1,0.7,2.3,1.4,3.4,2.2c4.4,2.8,10.8,2.8,15.1,0c31.7-20,63.3-40,95-60c4.5-2.8,9-5.7,13.5-8.5c56.3-35.7,105.1-81.7,144.2-135.7  c37.7-52.1,65.5-111.7,81.5-174c11.8-46,16.3-93,16.3-140.4V304.5C870.1,274.3,870.6,244.1,870.1,214z M689.2,385.8l-26.4,26.4  c-38.6,38.6-77.1,77.1-115.7,115.7l-73.2,73.2c-7.6,7.6-20.6,7.6-28.3,0c-4.6-4.6-9.2-9.2-13.8-13.8c-32.2-32.2-64.5-64.5-96.7-96.7  c-7.9-7.9-7.3-20.3,0-28.3c7.3-8,20.9-7.4,28.3,0c4.6,4.6,9.2,9.2,13.8,13.8c27.5,27.5,55,55,82.5,82.6c4.1-4.1,8.2-8.2,12.3-12.3  l115.7-115.7c24.4-24.4,48.8-48.8,73.2-73.2c7.9-7.9,20.3-7.3,28.3,0C697.2,364.8,696.6,378.4,689.2,385.8z"/><text x="0" y="1039" fill="#000000" font-size="5px" font-weight="bold" font-family="'Helvetica Neue', Helvetica, Arial-Unicode, Arial, Sans-serif">Created by shashank singh</text><text x="0" y="1044" fill="#000000" font-size="5px" font-weight="bold" font-family="'Helvetica Neue', Helvetica, Arial-Unicode, Arial, Sans-serif">from the Noun Project</text></svg>